<?xml version="1.0" encoding="UTF-8"?>
<svg version="1.1" xmlns="http://www.w3.org/2000/svg" width="284" height="284">
<path d="M0 0 C0.83402344 0.91652344 1.66804687 1.83304688 2.52734375 2.77734375 C7.190585 6.67133587 13.66529762 5.51354586 19.375 5.3125 C20.58800781 5.28994141 21.80101562 5.26738281 23.05078125 5.24414062 C26.03512502 5.1853937 29.01692067 5.10329222 32 5 C31.41795791 8.29017709 30.46038097 9.90688172 28.08837891 12.23632812 C27.4774942 12.84375854 26.8666095 13.45118896 26.23721313 14.07702637 C25.24194107 15.04436707 25.24194107 15.04436707 24.2265625 16.03125 C23.20724136 17.04064636 23.20724136 17.04064636 22.16732788 18.07043457 C19.99352562 20.22082776 17.80983529 22.36082229 15.625 24.5 C13.44903878 26.64084956 11.27524042 28.78383162 9.10409546 30.92956543 C7.7528103 32.26393631 6.39845236 33.59520436 5.04067993 34.92297363 C2.57438315 37.35027488 0.25385715 39.65879195 -1.81494141 42.43945312 C-2.20601074 42.95443359 -2.59708008 43.46941406 -3 44 C-3.66 44 -4.32 44 -5 44 C-5.23460937 44.56203125 -5.46921875 45.1240625 -5.7109375 45.703125 C-7.30663 48.54635891 -9.28924543 50.48098127 -11.625 52.75 C-12.44226563 53.54921875 -13.25953125 54.3484375 -14.1015625 55.171875 C-14.72804687 55.77515625 -15.35453125 56.3784375 -16 57 C-19.50429442 55.83190186 -20.01909349 54.92995688 -22.125 52 C-32.91907283 37.83979219 -47.2310518 28.14344913 -65 25 C-77.30142476 24.11941815 -89.56722471 23.95391341 -101 29 C-102.13308594 29.46277344 -103.26617187 29.92554688 -104.43359375 30.40234375 C-117.94466684 36.45494933 -127.96963179 45.96573607 -135 59 C-135.45761719 59.77472656 -135.91523438 60.54945312 -136.38671875 61.34765625 C-145.42834121 77.61171588 -146.80491168 98.64365922 -142.4375 116.5625 C-136.77568395 135.8524066 -125.10487782 151.6636898 -107.32421875 161.390625 C-91.33900935 169.1296453 -72.92140404 171.24951708 -55.75 165.9375 C-33.67342712 157.10194854 -21.91172986 143.47541469 -12 122 C-24.87 122 -37.74 122 -51 122 C-48.98948889 117.97897779 -46.77320528 115.66778147 -43.5 112.75 C-43.02046875 112.31042969 -42.5409375 111.87085938 -42.046875 111.41796875 C-40.99514366 110.46653138 -39.92377643 109.53653064 -38.83789062 108.62426758 C-36.91749894 106.98792709 -36.91749894 106.98792709 -35.08398438 104.8815918 C-28.79995394 98.62881482 -23.157103 98.12232151 -14.69445801 98.10916138 C-12.88459802 98.13685495 -11.07489733 98.17789591 -9.265625 98.23168945 C-6.47809179 98.31314015 -3.69487021 98.33421424 -0.90625 98.34570312 C0.86463218 98.36893001 2.63547439 98.39550017 4.40625 98.42578125 C5.23950806 98.43539383 6.07276611 98.44500641 6.93127441 98.45491028 C9.25976562 98.5324707 9.25976562 98.5324707 13 99 C15.70722908 103.06084362 14.76840645 106.05343361 14 110.625 C13.86045898 111.46949707 13.72091797 112.31399414 13.57714844 113.18408203 C10.73434828 129.06281233 4.40013206 143.86608294 -5 157 C-6.3303125 157.7734375 -6.3303125 157.7734375 -7.6875 158.5625 C-10.21325156 159.80074709 -10.21325156 159.80074709 -10.875 162.4375 C-10.99593766 164.91672209 -10.65306872 166.63388179 -10 169 C-8.54257537 169.08096803 -7.08387193 169.13917774 -5.625 169.1875 C-4.81289062 169.22230469 -4.00078125 169.25710937 -3.1640625 169.29296875 C-2.44992188 169.19628906 -1.73578125 169.09960938 -1 169 C1.20106023 165.69840966 1.18529289 164.79850432 1 161 C1 156.22068061 2.73349294 153.68786293 5.125 149.75 C15.47556305 131.93896618 18.69412002 114.42216162 20 94 C19.43560715 94.0199855 18.87121429 94.03997101 18.28971863 94.06056213 C12.36823292 94.26104779 6.44772337 94.39596422 0.52368164 94.49438477 C-1.6811443 94.53940097 -3.88570527 94.60063744 -6.08959961 94.67895508 C-26.76204543 95.39470167 -26.76204543 95.39470167 -33.7734375 89.69921875 C-36.07177734 87.31518555 -36.07177734 87.31518555 -38 85 C-39.26224548 83.7413286 -40.53139873 82.48947445 -41.8125 81.25 C-42.34617188 80.69441406 -42.87984375 80.13882813 -43.4296875 79.56640625 C-45.01967864 77.98037031 -46.68277411 76.58719996 -48.4375 75.1875 C-49.283125 74.465625 -50.12875 73.74375 -51 73 C-51 72.34 -51 71.68 -51 71 C-20.97 71 9.06 71 40 71 C45.48779897 90.20729641 44.13555826 110.84609785 39 130 C38.72712158 131.01779541 38.72712158 131.01779541 38.44873047 132.05615234 C30.00493393 162.27724718 9.46423739 189.62087656 -17.93261719 205.09130859 C-46.34223785 220.40749773 -77.72551425 225.84874807 -109.08203125 216.55859375 C-141.146685 206.33477033 -167.1114236 183.75050857 -182.9296875 154.1328125 C-197.9659235 124.81835422 -200.25718843 89.42434923 -190.74365234 58.06787109 C-180.91451566 27.59699485 -160.54991181 0.73387743 -131.95947266 -14.35571289 C-119.83257028 -20.46894851 -107.38419008 -24.62832815 -94 -27 C-93.25878906 -27.13277344 -92.51757812 -27.26554687 -91.75390625 -27.40234375 C-58.42657395 -32.14482963 -25.53081351 -21.26980877 0 0 Z M-118 4 C-118.92039063 4.44085938 -119.84078125 4.88171875 -120.7890625 5.3359375 C-132.99144756 11.55743523 -147.72976867 22.55839234 -154 35 C-154.56488946 40.00404581 -154.36337032 45.03236413 -154.22460938 50.05859375 C-154.24898216 55.62255281 -154.53325825 59.18488942 -158.23046875 63.5078125 C-160.98198498 66.21379369 -163.87677926 68.72856674 -167 71 C-166.9127395 68.74928094 -166.80455885 66.49936612 -166.6875 64.25 C-166.62949219 62.99703125 -166.57148438 61.7440625 -166.51171875 60.453125 C-165.98275721 56.88364409 -165.24473874 55.68523855 -163 53 C-163.07102785 49.5196355 -163.38584502 47.70514091 -165.6875 45.0625 C-168.83903422 43.61449779 -170.70949263 44.070074 -174 45 C-176.36410488 46.93731528 -176.36410488 46.93731528 -176.3125 50.4375 C-176.40116451 53.93308327 -176.40116451 53.93308327 -174.4987793 55.43136597 C-172.47062954 57.55404323 -172.6521943 58.76247643 -172.70703125 61.66064453 C-172.71694092 62.60658478 -172.72685059 63.55252502 -172.73706055 64.52713013 C-172.76195557 65.55200531 -172.78685059 66.57688049 -172.8125 67.6328125 C-172.82953979 69.23067093 -172.82953979 69.23067093 -172.84692383 70.86080933 C-172.89576081 75.41431779 -172.97901537 79.96701463 -173.06152344 84.52001953 C-173.28626873 98.08162343 -173.06679917 110.74292366 -170 124 C-169.65714966 125.56028931 -169.65714966 125.56028931 -169.30737305 127.15209961 C-169.12343994 127.98878174 -168.93950684 128.82546387 -168.75 129.6875 C-168.08260741 132.78798528 -168.02024446 134.09754151 -168.6875 137.3125 C-169.32821458 140.22515624 -169.32821458 140.22515624 -166.9375 142.9375 C-164.17174895 145.28738471 -164.17174895 145.28738471 -160.875 145.0625 C-157.98354351 144.18706667 -157.98354351 144.18706667 -156.0625 142.3125 C-154.58674409 139.10056066 -154.93555788 137.33525198 -156 134 C-158.58030918 131.4974924 -158.58030918 131.4974924 -162 131 C-162.12117188 130.38253906 -162.24234375 129.76507813 -162.3671875 129.12890625 C-162.53476563 128.28199219 -162.70234375 127.43507812 -162.875 126.5625 C-163.03742188 125.73878906 -163.19984375 124.91507813 -163.3671875 124.06640625 C-163.84541106 121.74908837 -164.40713344 119.44879004 -165.0078125 117.16015625 C-167.59228161 105.40779034 -169.67592456 87.40395371 -164.74609375 76.13330078 C-161.33796726 71.09961519 -156.85879387 67.55950637 -152 64 C-146.5508608 59.6766285 -146.5508608 59.6766285 -143.5234375 53.74609375 C-143.44090776 51.28138316 -143.44090776 51.28138316 -144 48 C-145.32 48.66 -146.64 49.32 -148 50 C-148.97380388 43.90143022 -149.32503409 39.0102319 -145.83203125 33.7109375 C-143.1019341 30.5728948 -140.08140896 27.78931278 -137 25 C-136.33355469 24.33226563 -135.66710937 23.66453125 -134.98046875 22.9765625 C-117.93456441 6.56198795 -93.70979742 1.29750206 -70.8828125 1.68359375 C-54.8373522 2.30714904 -40.27612797 7.32810652 -26.875 16.0625 C-26.22249268 16.48611816 -25.56998535 16.90973633 -24.89770508 17.34619141 C-20.68919472 20.20389761 -18.54879472 22.16283485 -17.5859375 27.140625 C-17.390625 29.09375 -17.1953125 31.046875 -17 33 C-14.05035052 33.30769912 -14.05035052 33.30769912 -12.37426758 31.73071289 C-11.80345459 31.1505542 -11.2326416 30.57039551 -10.64453125 29.97265625 C-10.02255859 29.34552734 -9.40058594 28.71839844 -8.75976562 28.07226562 C-8.11716797 27.40904297 -7.47457031 26.74582031 -6.8125 26.0625 C-6.15830078 25.40314453 -5.50410156 24.74378906 -4.83007812 24.06445312 C-1.65696999 21.40970424 -1.65696999 21.40970424 0 18 C-1.45019531 18.0309375 -1.45019531 18.0309375 -2.9296875 18.0625 C-11.1890456 17.93165868 -15.89563388 17.06576966 -22.09765625 11.328125 C-32.3840207 3.07688245 -46.23044944 -1.38060501 -59 -4 C-59.90621094 -4.18949219 -60.81242187 -4.37898438 -61.74609375 -4.57421875 C-81.1065255 -7.10757657 -100.44155278 -4.60313603 -118 4 Z M-13 149 C-13 149.66 -13 150.32 -13 151 C-13.58007812 151.24363281 -14.16015625 151.48726562 -14.7578125 151.73828125 C-21.91513577 155.76583424 -25.35730105 163.39340915 -27.9375 170.8125 C-29.57194689 175.38557549 -30.9025748 178.73075966 -35.3125 181.1875 C-36.8611325 181.82637479 -38.42392464 182.43218834 -40 183 C-40.64195312 183.33773437 -41.28390625 183.67546875 -41.9453125 184.0234375 C-60.12633341 193.50608762 -83.75784849 193.40043637 -102.97363281 187.38183594 C-111.67268239 184.42183244 -119.54524777 180.398648 -127 175 C-128.52753906 173.91138672 -128.52753906 173.91138672 -130.0859375 172.80078125 C-137.80854228 166.95423341 -137.80854228 166.95423341 -138.734375 162.33984375 C-138.82203125 161.23769531 -138.9096875 160.13554687 -139 159 C-139.98048938 156.93597315 -139.98048938 156.93597315 -142 156 C-145.4093712 155.63471023 -147.88023824 155.3859371 -150.9375 157.0625 C-152.63335287 160.15493758 -152.43060657 162.55514741 -152 166 C-149.80454313 168.54672997 -148.16702218 168.96659556 -144.875 169.625 C-141.16960918 170.56704851 -139.125653 172.51723807 -136.375 175.125 C-119.57619788 190.95659836 -96.15176897 198.56120173 -73.33203125 198.21875 C-57.42649415 197.64596451 -41.30306215 192.72834006 -28 184 C-25.73171545 181.3294616 -24.37047904 178.80478162 -23.17578125 175.5234375 C-22.86962891 174.688125 -22.56347656 173.8528125 -22.24804688 172.9921875 C-21.93931641 172.12851563 -21.63058594 171.26484375 -21.3125 170.375 C-20.99216797 169.50359375 -20.67183594 168.6321875 -20.34179688 167.734375 C-18.64053576 163.47141324 -18.64053576 163.47141324 -18 159 C-17.443125 158.773125 -16.88625 158.54625 -16.3125 158.3125 C-13.28427625 156.59377841 -11.22676336 154.67211603 -9 152 C-9.04497842 149.72476911 -9.04497842 149.72476911 -10 148 C-11.2236068 147.9254644 -11.2236068 147.9254644 -13 149 Z " fill="#0477DE" transform="translate(220,47)"/>
<path d="M0 0 C0.98120464 3.05263664 0.98120464 4.94736336 0 8 C-0.86625 8.12375 -0.86625 8.12375 -1.75 8.25 C-4.60798931 9.2026631 -5.92954588 10.86053074 -8 13 C-8.66 13 -9.32 13 -10 13 C-10.33 13.99 -10.66 14.98 -11 16 C-11.66 16 -12.32 16 -13 16 C-13 17.65 -13 19.3 -13 21 C-12.38125 21.268125 -11.7625 21.53625 -11.125 21.8125 C-9 23 -9 23 -7 26 C-7.0234375 29.13671875 -7.0234375 29.13671875 -7.375 32.6875 C-7.54128906 34.45673828 -7.54128906 34.45673828 -7.7109375 36.26171875 C-7.85402344 37.61716797 -7.85402344 37.61716797 -8 39 C-6.35 39 -4.7 39 -3 39 C-3 37.68 -3 36.36 -3 35 C-2.34 35 -1.68 35 -1 35 C-1 33.68 -1 32.36 -1 31 C-0.34 31 0.32 31 1 31 C1.0928125 30.1646875 1.0928125 30.1646875 1.1875 29.3125 C2.3476371 26.01057134 4.45559795 24.37092009 7 22 C7.928125 21.071875 8.85625 20.14375 9.8125 19.1875 C10.534375 18.465625 11.25625 17.74375 12 17 C12.99 17.33 13.98 17.66 15 18 C14.43152344 18.52207031 13.86304688 19.04414062 13.27734375 19.58203125 C7.3924853 25.19180449 3.01979196 30.9477334 -1 38 C-1.46277344 38.77859375 -1.92554687 39.5571875 -2.40234375 40.359375 C-11.40025363 56.65954001 -12.81040371 77.62112622 -8.4375 95.5625 C-2.79867271 114.77408351 8.64681185 129.90359962 26 140 C24.68 140.33 23.36 140.66 22 141 C22 140.34 22 139.68 22 139 C20.576875 138.5978125 20.576875 138.5978125 19.125 138.1875 C16 137 16 137 14 134 C13.01 133.67 12.02 133.34 11 133 C8 132 8 132 6 129 C4.68 129.33 3.36 129.66 2 130 C2 130.99 2 131.98 2 133 C0.02 133 -1.96 133 -4 133 C-3.34 133.99 -2.68 134.98 -2 136 C-1.8046875 138.26171875 -1.8046875 138.26171875 -1.875 140.6875 C-1.89304687 141.49574219 -1.91109375 142.30398437 -1.9296875 143.13671875 C-1.95289062 143.75160156 -1.97609375 144.36648437 -2 145 C-0.68 144.67 0.64 144.34 2 144 C2 145.98 2 147.96 2 150 C-0.56096648 148.54900855 -2.88295729 147.05567916 -5 145 C-5.8125 141.3125 -5.8125 141.3125 -6 138 C-7.94332332 135.62005632 -7.94332332 135.62005632 -11.5 135.75 C-15.05667668 135.62005632 -15.05667668 135.62005632 -17 138 C-17.40047444 140.32275177 -17.7397104 142.65739357 -18 145 C-18.33 145 -18.66 145 -19 145 C-19.12375 143.865625 -19.2475 142.73125 -19.375 141.5625 C-19.58125 140.386875 -19.7875 139.21125 -20 138 C-20.66 137.67 -21.32 137.34 -22 137 C-22 135.68 -22 134.36 -22 133 C-21.34 133 -20.68 133 -20 133 C-20.66 132.01 -21.32 131.02 -22 130 C-21.75 126.875 -21.75 126.875 -21 123 C-20.86335938 122.20078125 -20.72671875 121.4015625 -20.5859375 120.578125 C-20.43382813 119.76859375 -20.28171875 118.9590625 -20.125 118.125 C-19.91230469 116.98417969 -19.91230469 116.98417969 -19.6953125 115.8203125 C-19.46585938 115.21960938 -19.23640625 114.61890625 -19 114 C-17.515 113.505 -17.515 113.505 -16 113 C-15.67 113.99 -15.34 114.98 -15 116 C-14.9175 114.72125 -14.835 113.4425 -14.75 112.125 C-14.48046875 109.9140625 -14.48046875 109.9140625 -14 108 C-11.81734379 106.31020164 -10.72785349 106 -8 106 C-8.33 103.03 -8.66 100.06 -9 97 C-9.66 97 -10.32 97 -11 97 C-13.24522245 89.79834308 -14.34469594 82.81696966 -14.75 75.3125 C-14.79439209 74.51021973 -14.83878418 73.70793945 -14.88452148 72.88134766 C-14.97076499 70.92241813 -14.99152083 68.96080875 -15 67 C-14.505 66.505 -14.505 66.505 -14 66 C-13.71681146 63.15912448 -13.55149787 60.31834785 -13.37890625 57.46875 C-13.25386719 56.6540625 -13.12882812 55.839375 -13 55 C-12.01 54.505 -12.01 54.505 -11 54 C-9.73238238 49.70418473 -9 46.49055702 -9 42 C-11.93920759 40.63587227 -11.93920759 40.63587227 -14.375 42.125 C-19.3791811 45.69941507 -23.14658151 50.26580013 -27 55 C-27.66 54.67 -28.32 54.34 -29 54 C-25.84579194 50.24293989 -22.66758686 46.62642198 -19.0859375 43.265625 C-18.58682861 42.79680908 -18.08771973 42.32799316 -17.57348633 41.8449707 C-16.11471794 40.48614056 -14.6377249 39.14695674 -13.16015625 37.80859375 C-10.47261322 34.31430182 -10.56906934 32.30398649 -11 28 C-11.66 28 -12.32 28 -13 28 C-13.33 28.66 -13.66 29.32 -14 30 C-15.833106 28.166894 -15.54947604 25.67340733 -15.75 23.1875 C-15.75 16.83014091 -14.01058854 13.82563043 -9.75 9.4375 C-7.87414703 7.57120513 -5.95406345 5.78758598 -4 4 C-2.66113653 2.67221984 -1.32542058 1.3411994 0 0 Z " fill="#0576DD" transform="translate(86,68)"/>
<path d="M0 0 C3.52910489 1.23248127 5.78087432 2.44228803 8.3125 5.1875 C11.33852003 8.35047352 14.49613253 11.23895684 17.80859375 14.09765625 C27.58108108 22.58108108 27.58108108 22.58108108 32 27 C31.69239682 30.50452705 30.21340978 32.10703212 27.68359375 34.42578125 C27.00103516 35.05806641 26.31847656 35.69035156 25.61523438 36.34179688 C24.89658203 36.99212891 24.17792969 37.64246094 23.4375 38.3125 C22.74591797 38.95123047 22.05433594 39.58996094 21.34179688 40.24804688 C3.13020042 57 3.13020042 57 0 57 C-1.78342842 45.68844012 -1.78342842 45.68844012 1.11328125 41.32177734 C4.35791927 37.75200514 8.17897281 34.92021508 12 32 C13.35750975 30.69128962 14.70177852 29.36754398 16 28 C14.08539961 26.22688737 12.16842507 24.45646638 10.25 22.6875 C9.71117187 22.18798828 9.17234375 21.68847656 8.6171875 21.17382812 C8.08867187 20.68720703 7.56015625 20.20058594 7.015625 19.69921875 C6.50032227 19.22121826 5.98501953 18.74321777 5.45410156 18.25073242 C3.92631222 16.86289059 3.92631222 16.86289059 1.625 15.59375 C0 14 0 14 -0.390625 10.64453125 C-0.34421875 9.37996094 -0.2978125 8.11539063 -0.25 6.8125 C-0.21390625 5.54019531 -0.1778125 4.26789063 -0.140625 2.95703125 C-0.09421875 1.98121094 -0.0478125 1.00539063 0 0 Z " fill="#0679DC" transform="translate(152,115)"/>
<path d="M0 0 C0.99 0.33 1.98 0.66 3 1 C4.05459766 10.10636709 4.05459766 10.10636709 1.7578125 14.23046875 C-0.0518144 16.31946202 -1.93836339 18.15871948 -4 20 C-4.8146875 20.74894531 -5.629375 21.49789062 -6.46875 22.26953125 C-8.61970156 24.21287514 -10.7942426 26.11935424 -13 28 C-10.19350578 31.59582072 -7.36948051 34.62249426 -3.875 37.5625 C1.64225535 42.35106124 1.64225535 42.35106124 3 46 C3.22230265 49.35004931 3.17569229 52.6488323 3 56 C-2.32626689 56 -3.242121 54.58706631 -7 51 C-7 50.34 -7 49.68 -7 49 C-7.58193115 48.74025391 -8.1638623 48.48050781 -8.76342773 48.21289062 C-11.15875279 46.91390854 -12.82256317 45.47832104 -14.78515625 43.59375 C-15.48060547 42.93246094 -16.17605469 42.27117187 -16.89257812 41.58984375 C-17.60865234 40.90019531 -18.32472656 40.21054688 -19.0625 39.5 C-20.48903847 38.13348598 -21.91735301 36.76882301 -23.34765625 35.40625 C-23.97679932 34.80103516 -24.60594238 34.19582031 -25.25415039 33.57226562 C-27.12072398 31.81506939 -27.12072398 31.81506939 -30 30 C-29.4356735 26.47677238 -28.36929879 25.10404269 -25.625 22.875 C-22.17297579 19.99212673 -18.81614517 17.03902998 -15.5 14 C-11.56209138 10.40713761 -7.59044542 6.86200685 -3.55859375 3.375 C-2.33264177 2.2934584 -1.156004 1.156004 0 0 Z " fill="#0677DB" transform="translate(140,115)"/>
<path d="M0 0 C0.98120464 3.05263664 0.98120464 4.94736336 0 8 C-0.86625 8.12375 -0.86625 8.12375 -1.75 8.25 C-4.60798931 9.2026631 -5.92954588 10.86053074 -8 13 C-8.66 13 -9.32 13 -10 13 C-10.33 13.99 -10.66 14.98 -11 16 C-11.66 16 -12.32 16 -13 16 C-13 17.65 -13 19.3 -13 21 C-12.38125 21.268125 -11.7625 21.53625 -11.125 21.8125 C-9 23 -9 23 -7 26 C-7.0234375 29.13671875 -7.0234375 29.13671875 -7.375 32.6875 C-7.54128906 34.45673828 -7.54128906 34.45673828 -7.7109375 36.26171875 C-7.85402344 37.61716797 -7.85402344 37.61716797 -8 39 C-6.35 39 -4.7 39 -3 39 C-3 37.68 -3 36.36 -3 35 C-2.34 35 -1.68 35 -1 35 C-1 33.68 -1 32.36 -1 31 C-0.34 31 0.32 31 1 31 C1.0928125 30.1646875 1.0928125 30.1646875 1.1875 29.3125 C2.3476371 26.01057134 4.45559795 24.37092009 7 22 C7.928125 21.071875 8.85625 20.14375 9.8125 19.1875 C10.534375 18.465625 11.25625 17.74375 12 17 C12.99 17.33 13.98 17.66 15 18 C14.43152344 18.52207031 13.86304688 19.04414062 13.27734375 19.58203125 C7.3924853 25.19180449 3.01979196 30.9477334 -1 38 C-1.46277344 38.77859375 -1.92554687 39.5571875 -2.40234375 40.359375 C-12.24321063 58.18659889 -12.70321477 80.47095839 -7.16015625 99.72265625 C-5.75002521 103.70615774 -4.00483442 107.28734367 -2 111 C-2.33 111.66 -2.66 112.32 -3 113 C-4.485 112.505 -4.485 112.505 -6 112 C-6.94921875 109.63671875 -6.94921875 109.63671875 -7.6875 106.6875 C-7.93886719 105.72199219 -8.19023438 104.75648438 -8.44921875 103.76171875 C-9 101 -9 101 -9 97 C-9.66 97 -10.32 97 -11 97 C-13.24522245 89.79834308 -14.34469594 82.81696966 -14.75 75.3125 C-14.79439209 74.51021973 -14.83878418 73.70793945 -14.88452148 72.88134766 C-14.97076499 70.92241813 -14.99152083 68.96080875 -15 67 C-14.505 66.505 -14.505 66.505 -14 66 C-13.71681146 63.15912448 -13.55149787 60.31834785 -13.37890625 57.46875 C-13.25386719 56.6540625 -13.12882812 55.839375 -13 55 C-12.01 54.505 -12.01 54.505 -11 54 C-9.73238238 49.70418473 -9 46.49055702 -9 42 C-11.93920759 40.63587227 -11.93920759 40.63587227 -14.375 42.125 C-19.3791811 45.69941507 -23.14658151 50.26580013 -27 55 C-27.66 54.67 -28.32 54.34 -29 54 C-25.84579194 50.24293989 -22.66758686 46.62642198 -19.0859375 43.265625 C-18.58682861 42.79680908 -18.08771973 42.32799316 -17.57348633 41.8449707 C-16.11471794 40.48614056 -14.6377249 39.14695674 -13.16015625 37.80859375 C-10.47261322 34.31430182 -10.56906934 32.30398649 -11 28 C-11.66 28 -12.32 28 -13 28 C-13.33 28.66 -13.66 29.32 -14 30 C-15.833106 28.166894 -15.54947604 25.67340733 -15.75 23.1875 C-15.75 16.83014091 -14.01058854 13.82563043 -9.75 9.4375 C-7.87414703 7.57120513 -5.95406345 5.78758598 -4 4 C-2.66113653 2.67221984 -1.32542058 1.3411994 0 0 Z " fill="#1771C3" transform="translate(86,68)"/>
<path d="M0 0 C1.26120854 3.78362561 0.25482572 5.31394946 -1 9 C-0.505 9.99 -0.505 9.99 0 11 C-0.66 11 -1.32 11 -2 11 C-2.66 13.64 -3.32 16.28 -4 19 C-5.65 18.67 -7.3 18.34 -9 18 C-9.37233882 22.18868414 -9.37233882 22.18868414 -7.6875 25.875 C-5.92199528 27.2773501 -5.92199528 27.2773501 -3 27 C-3.43570313 27.47566406 -3.87140625 27.95132813 -4.3203125 28.44140625 C-8.44249224 33.28630581 -10.88088962 37.8313543 -13 43.75 C-15.22450957 49.83769885 -17.01350084 53.17001858 -23 56 C-25.9375 56.8125 -25.9375 56.8125 -28 57 C-26.70769628 54.41539256 -25.63173765 54.32149319 -23 53.25 C-20.81016823 52.28264704 -20.81016823 52.28264704 -19 51 C-18.10169161 47.94727535 -18.10169161 47.94727535 -18 45 C-17.01 44.34 -16.02 43.68 -15 43 C-14.20562077 40.81494871 -14.20562077 40.81494871 -13.8125 38.375 C-13.65394531 37.55773437 -13.49539062 36.74046875 -13.33203125 35.8984375 C-13.22246094 35.27195313 -13.11289063 34.64546875 -13 34 C-14.32 34 -15.64 34 -17 34 C-17 33.34 -17 32.68 -17 32 C-17.66 31.67 -18.32 31.34 -19 31 C-19.66 31.33 -20.32 31.66 -21 32 C-22.32 32 -23.64 32 -25 32 C-25.33 32.99 -25.66 33.98 -26 35 C-29.465 35.495 -29.465 35.495 -33 36 C-30.50681781 33.94679114 -28.05019938 32.03152054 -25.3125 30.3125 C-13.93945906 22.76945486 -5.5984518 12.36324771 0 0 Z " fill="#0575DB" transform="translate(206,174)"/>
<path d="M0 0 C3.19218343 0.85124892 5.47399831 1.4915317 7.875 3.8125 C9.20193689 6.39265507 9.23861338 8.13663949 9 11 C8.05125 11.45375 7.1025 11.9075 6.125 12.375 C2.99686321 13.80238254 2.99686321 13.80238254 1 16 C0.60235737 17.98821313 0.26224651 19.98944339 0 22 C0.99 21.34 1.98 20.68 3 20 C5.6875 19.875 5.6875 19.875 8 20 C8 19.34 8 18.68 8 18 C8.66 18 9.32 18 10 18 C10 17.01 10 16.02 10 15 C11.65 14.67 13.3 14.34 15 14 C15 13.34 15 12.68 15 12 C15.66 12 16.32 12 17 12 C17.33 11.01 17.66 10.02 18 9 C18.99 9 19.98 9 21 9 C21.33 7.68 21.66 6.36 22 5 C22.68359375 6.79296875 22.68359375 6.79296875 23 9 C21.84765625 10.67578125 21.84765625 10.67578125 20.0625 12.3125 C19.40894531 12.9209375 18.75539062 13.529375 18.08203125 14.15625 C17.05142578 15.06890625 17.05142578 15.06890625 16 16 C15.38511719 16.5465625 14.77023438 17.093125 14.13671875 17.65625 C12.84659066 18.7887848 11.55072359 19.91480644 10.25 21.03515625 C6.61172947 24.21232652 3.07020007 27.49541594 -0.484375 30.765625 C-6.37762238 36 -6.37762238 36 -9 36 C-10.78342842 24.68844012 -10.78342842 24.68844012 -7.88671875 20.32177734 C-4.64208073 16.75200514 -0.82102719 13.92021508 3 11 C4.35750975 9.69128962 5.70177852 8.36754398 7 7 C6.24203125 6.36771484 6.24203125 6.36771484 5.46875 5.72265625 C4.8190625 5.17480469 4.169375 4.62695312 3.5 4.0625 C2.8503125 3.51722656 2.200625 2.97195312 1.53125 2.41015625 C1.0259375 1.94480469 0.520625 1.47945312 0 1 C0 0.67 0 0.34 0 0 Z " fill="#0C75D1" transform="translate(161,136)"/>
<path d="M0 0 C0.33 0.66 0.66 1.32 1 2 C-0.71504275 5.81674969 -2.8890199 9.38991809 -5 13 C-5.55300781 13.96679688 -5.55300781 13.96679688 -6.1171875 14.953125 C-7.73441437 17.59949624 -8.98125182 18.9890999 -11.6875 20.5625 C-14.21325156 21.80074709 -14.21325156 21.80074709 -14.875 24.4375 C-14.99593766 26.91672209 -14.65306872 28.63388179 -14 31 C-12.54257537 31.08096803 -11.08387193 31.13917774 -9.625 31.1875 C-8.40683594 31.23970703 -8.40683594 31.23970703 -7.1640625 31.29296875 C-6.44992188 31.19628906 -5.73578125 31.09960938 -5 31 C-2.70986347 27.5647952 -2.82157027 26.014669 -3 22 C-2.34 22 -1.68 22 -1 22 C-1 25.3 -1 28.6 -1 32 C-5.33420699 34.03165952 -9.28596212 34.52060632 -14 35 C-14.99 33.35 -15.98 31.7 -17 30 C-19.97065509 30.34227572 -19.97065509 30.34227572 -23 31 C-23.33 31.66 -23.66 32.32 -24 33 C-24.66 33 -25.32 33 -26 33 C-24.4805568 26.63810366 -23.1990095 22.31137373 -18 18 C-17.236875 17.236875 -16.47375 16.47375 -15.6875 15.6875 C-15.130625 15.130625 -14.57375 14.57375 -14 14 C-14.33 13.01 -14.66 12.02 -15 11 C-15.66 11 -16.32 11 -17 11 C-17 11.66 -17 12.32 -17 13 C-18.98 13.99 -18.98 13.99 -21 15 C-19.25 10.125 -19.25 10.125 -17 9 C-10.52941176 8.64705882 -10.52941176 8.64705882 -7 11 C-4.64046906 8.64046906 -4.50858587 7.22104383 -4 4 C-3.34 4 -2.68 4 -2 4 C-2 3.01 -2 2.02 -2 1 C-1.34 0.67 -0.68 0.34 0 0 Z " fill="#0972D4" transform="translate(224,185)"/>
<path d="M0 0 C1.67542976 0.28604898 3.34385343 0.61781233 5 1 C4 3 3 5 2 7 C1.92962171 8.72007453 1.91529064 10.44260898 1.9296875 12.1640625 C1.919375 13.20433594 1.9090625 14.24460937 1.8984375 15.31640625 C1.88297882 17.49865715 1.89028884 19.6812042 1.921875 21.86328125 C1.80215982 28.81531281 0.74647662 32.5279634 -4.27368164 37.44091797 C-4.8433667 37.95541504 -5.41305176 38.46991211 -6 39 C-6.763125 39.825 -7.52625 40.65 -8.3125 41.5 C-10 43 -10 43 -12 43 C-12.08119503 40.75059705 -12.13927819 38.50035129 -12.1875 36.25 C-12.22230469 34.99703125 -12.25710937 33.7440625 -12.29296875 32.453125 C-11.97958144 28.75933325 -11.31332588 27.73671974 -9 25 C-9.2413865 21.98266875 -9.64641521 19.70716958 -11 17 C-8.525 17.99 -8.525 17.99 -6 19 C-6 20.98 -6 22.96 -6 25 C-5.34 25 -4.68 25 -4 25 C-2.39644899 21.49223216 -1.77963136 18.85645121 -2 15 C-1.34 15 -0.68 15 0 15 C-0.12568359 13.50146484 -0.12568359 13.50146484 -0.25390625 11.97265625 C-0.35574219 10.68230469 -0.45757812 9.39195313 -0.5625 8.0625 C-0.66691406 6.77472656 -0.77132812 5.48695312 -0.87890625 4.16015625 C-0.91886719 3.11730469 -0.95882812 2.07445313 -1 1 C-0.67 0.67 -0.34 0.34 0 0 Z " fill="#0774D4" transform="translate(65,75)"/>
<path d="M0 0 C1.36125 0.37125 1.36125 0.37125 2.75 0.75 C2.75 1.41 2.75 2.07 2.75 2.75 C3.678125 2.87375 3.678125 2.87375 4.625 3 C6.75 3.75 6.75 3.75 8 5.8125 C8.2475 6.451875 8.495 7.09125 8.75 7.75 C9.74 7.75 10.73 7.75 11.75 7.75 C11.75 9.07 11.75 10.39 11.75 11.75 C10.76 12.08 9.77 12.41 8.75 12.75 C8.42 13.41 8.09 14.07 7.75 14.75 C7.09 14.75 6.43 14.75 5.75 14.75 C5.75 15.41 5.75 16.07 5.75 16.75 C4.1 17.08 2.45 17.41 0.75 17.75 C0.75 18.74 0.75 19.73 0.75 20.75 C0.09 20.75 -0.57 20.75 -1.25 20.75 C-1.25 21.41 -1.25 22.07 -1.25 22.75 C-3.89 23.41 -6.53 24.07 -9.25 24.75 C-9.57693436 21.15372208 -9.72194463 19.37364112 -7.5 16.4375 C-5.31388127 14.79791095 -3.92438062 14.13205437 -1.25 13.75 C-1.04913557 10.03400809 -1.0980563 8.97791555 -3.25 5.75 C-5.30003955 4.55767387 -5.30003955 4.55767387 -7.25 3.75 C-4.05 -0.31153846 -4.05 -0.31153846 0 0 Z " fill="#0576DC" transform="translate(170.25,133.25)"/>
<path d="M0 0 C0.33 0.66 0.66 1.32 1 2 C1.66 2.33 2.32 2.66 3 3 C2.34 3 1.68 3 1 3 C1 3.66 1 4.32 1 5 C1.66 5 2.32 5 3 5 C2.42655063 7.86724686 2.1385485 8.8614515 0 11 C-0.99 11 -1.98 11 -3 11 C-3 11.66 -3 12.32 -3 13 C-3.99 13 -4.98 13 -6 13 C-6 13.99 -6 14.98 -6 16 C-6.99 16.66 -7.98 17.32 -9 18 C-9.13076643 20.7460951 -9.14561316 23.27649467 -9 26 C-9 26.99 -9 27.98 -9 29 C-10.98 28.34 -12.96 27.68 -15 27 C-15.33 25.35 -15.66 23.7 -16 22 C-16.61875 21.87625 -17.2375 21.7525 -17.875 21.625 C-20 21 -20 21 -22 19 C-19.21104307 15.87298769 -17.23486156 14.09553691 -13.3125 12.5 C-9.84666786 11.34990155 -9.84666786 11.34990155 -8.75 8.5 C-8.5025 7.675 -8.255 6.85 -8 6 C-6.6875 4.1875 -6.6875 4.1875 -5 3 C-2.3125 2.8125 -2.3125 2.8125 0 3 C0 2.01 0 1.02 0 0 Z " fill="#0577DF" transform="translate(134,124)"/>
<path d="M0 0 C0.99 0.33 1.98 0.66 3 1 C4.05459766 10.10636709 4.05459766 10.10636709 1.7578125 14.23046875 C-0.0518144 16.31946202 -1.93836339 18.15871948 -4 20 C-4.8146875 20.74894531 -5.629375 21.49789062 -6.46875 22.26953125 C-8.61970156 24.21287514 -10.7942426 26.11935424 -13 28 C-11.35 30.31 -9.7 32.62 -8 35 C-10.66666667 33.66666667 -13.33333333 32.33333333 -16 31 C-15.67 29.35 -15.34 27.7 -15 26 C-14.01 25.67 -13.02 25.34 -12 25 C-12 24.01 -12 23.02 -12 22 C-11.01 22 -10.02 22 -9 22 C-9 21.34 -9 20.68 -9 20 C-8.01 20 -7.02 20 -6 20 C-5.67 18.68 -5.34 17.36 -5 16 C-4.67 16.33 -4.34 16.66 -4 17 C-3.67 16.01 -3.34 15.02 -3 14 C-3.66 14 -4.32 14 -5 14 C-5 13.01 -5 12.02 -5 11 C-9.89562693 12.87702327 -9.89562693 12.87702327 -14 16 C-14 17.32 -14 18.64 -14 20 C-15.45381897 20.69699552 -16.91322953 21.38233866 -18.375 22.0625 C-19.18710938 22.44535156 -19.99921875 22.82820313 -20.8359375 23.22265625 C-21.55007812 23.47917969 -22.26421875 23.73570312 -23 24 C-23.66 23.67 -24.32 23.34 -25 23 C-9.52664433 8.4665298 -9.52664433 8.4665298 -3.41796875 3.234375 C-2.23487906 2.20446772 -1.10914612 1.10914612 0 0 Z " fill="#0776D8" transform="translate(140,115)"/>
<path d="M0 0 C11.84765173 -0.02312202 23.69529814 -0.04091437 35.5429678 -0.05181217 C41.04370862 -0.05704131 46.54443405 -0.06413951 52.04516602 -0.07543945 C57.3489656 -0.08626725 62.65275035 -0.0922766 67.95656013 -0.09487724 C69.98485612 -0.09673169 72.01315126 -0.10035267 74.04144096 -0.10573006 C76.87196514 -0.11293906 79.70242718 -0.113991 82.53295898 -0.11352539 C83.80394188 -0.1189183 83.80394188 -0.1189183 85.1006012 -0.12442017 C90.88594784 -0.11405216 90.88594784 -0.11405216 92 1 C92.04080783 2.99958364 92.04254356 5.00045254 92 7 C91.01 6.505 91.01 6.505 90 6 C90 4.68 90 3.36 90 2 C62.61 2.33 35.22 2.66 7 3 C6.67 3.99 6.34 4.98 6 6 C2.52100842 4.60840337 1.51947499 3.36748512 0 0 Z " fill="#1273C9" transform="translate(169,118)"/>
<path d="M0 0 C1.35145562 0.04022576 2.70302799 0.07671044 4.0546875 0.109375 C7.33116604 0.20298867 10.60152575 0.33399584 13.875 0.5 C13.875 1.16 13.875 1.82 13.875 2.5 C4.305 2.83 -5.265 3.16 -15.125 3.5 C-15.125 4.16 -15.125 4.82 -15.125 5.5 C-15.929375 5.78875 -16.73375 6.0775 -17.5625 6.375 C-20.2576468 7.23262568 -20.2576468 7.23262568 -21.125 9.5 C-22.115 9.5 -23.105 9.5 -24.125 9.5 C-24.125 10.16 -24.125 10.82 -24.125 11.5 C-25.76953125 13.19140625 -25.76953125 13.19140625 -27.9375 15.0625 C-28.99904297 15.99255859 -28.99904297 15.99255859 -30.08203125 16.94140625 C-32.125 18.5 -32.125 18.5 -35.125 19.5 C-35.125 20.16 -35.125 20.82 -35.125 21.5 C-34.06998291 21.49476318 -33.01496582 21.48952637 -31.92797852 21.48413086 C-28.0274337 21.46608099 -24.1268926 21.45456805 -20.22631836 21.44506836 C-18.53555684 21.4400281 -16.84479971 21.43319595 -15.15405273 21.42456055 C-12.72899293 21.41248143 -10.30399056 21.40676877 -7.87890625 21.40234375 C-6.73827477 21.39460182 -6.73827477 21.39460182 -5.57460022 21.38670349 C-3.7576743 21.38650762 -1.94086873 21.43802723 -0.125 21.5 C0.875 22.5 0.875 22.5 0.9375 25.5625 C0.916875 26.531875 0.89625 27.50125 0.875 28.5 C0.215 28.5 -0.445 28.5 -1.125 28.5 C-0.795 26.85 -0.465 25.2 -0.125 23.5 C-12.995 23.5 -25.865 23.5 -39.125 23.5 C-37.11448889 19.47897779 -34.89820528 17.16778147 -31.625 14.25 C-31.14546875 13.81042969 -30.6659375 13.37085938 -30.171875 12.91796875 C-29.12417193 11.97017551 -28.06023555 11.0401322 -26.98388672 10.125 C-25.61448717 8.92789948 -24.30005675 7.66721109 -23.02001953 6.375 C-15.76730697 -0.40722571 -9.63310116 -0.49694569 0 0 Z " fill="#186EBA" transform="translate(208.125,145.5)"/>
<path d="M0 0 C0 0.66 0 1.32 0 2 C-2.05078125 2.22786458 -4.1015625 2.45572917 -6.15234375 2.68359375 C-8.01140229 2.81886614 -8.01140229 2.81886614 -9 4 C-9.33354403 7.41624258 -9.33354403 7.41624258 -9 11 C-8.25882935 11.71144165 -8.25882935 11.71144165 -7.50268555 12.43725586 C-5.4730313 14.54803033 -5.65194689 15.7388134 -5.70703125 18.62890625 C-5.71694092 19.56839111 -5.72685059 20.50787598 -5.73706055 21.47583008 C-5.76195557 22.49443115 -5.78685059 23.51303223 -5.8125 24.5625 C-5.82385986 25.62299561 -5.83521973 26.68349121 -5.84692383 27.77612305 C-5.89571332 32.3075715 -5.97878457 36.83820283 -6.06152344 41.36914062 C-6.2990458 55.59548002 -5.82761173 69.03025155 -3 83 C-3.66 83 -4.32 83 -5 83 C-11.76994917 71.41126605 -10.60096599 54.78763856 -9 42 C-8.74246948 41.04879272 -8.74246948 41.04879272 -8.47973633 40.07836914 C-7.89118278 37.52856946 -7.88780846 35.19447734 -7.90234375 32.578125 C-7.90556641 31.55332031 -7.90878906 30.52851562 -7.91210938 29.47265625 C-7.92048828 28.40917969 -7.92886719 27.34570312 -7.9375 26.25 C-7.94426758 24.63158203 -7.94426758 24.63158203 -7.95117188 22.98046875 C-7.96294273 20.32025617 -7.97938601 17.66015635 -8 15 C-8.66 14.67 -9.32 14.34 -10 14 C-10 13.34 -10 12.68 -10 12 C-10.66 12 -11.32 12 -12 12 C-12.05395478 10.37536158 -12.09277195 8.75021459 -12.125 7.125 C-12.14820313 6.22007813 -12.17140625 5.31515625 -12.1953125 4.3828125 C-12 2 -12 2 -10 0 C-6.33865009 -1.08850943 -3.68061127 -0.9464429 0 0 Z " fill="#216DA8" transform="translate(54,90)"/>
<path d="M0 0 C8.30963736 6.62494376 8.30963736 6.62494376 10 11 C10.22711237 14.3499075 10.17569646 17.64875263 10 21 C4.67373311 21 3.757879 19.58706631 0 16 C0 15.34 0 14.68 0 14 C-0.59296875 13.74476563 -1.1859375 13.48953125 -1.796875 13.2265625 C-4.21224538 11.88183502 -5.51211706 10.50785633 -7.25 8.375 C-7.77078125 7.74335938 -8.2915625 7.11171875 -8.828125 6.4609375 C-9.21484375 5.97882813 -9.6015625 5.49671875 -10 5 C-6.75791433 5.35049575 -5.38472296 5.56221181 -3.1875 8.0625 C-2.795625 8.701875 -2.40375 9.34125 -2 10 C-0.68 9.67 0.64 9.34 2 9 C2.77242269 7.16299211 2.77242269 7.16299211 3 5 C1.60411246 3.35405861 1.60411246 3.35405861 0 2 C0 1.34 0 0.68 0 0 Z " fill="#0D75D0" transform="translate(133,150)"/>
<path d="M0 0 C0.99 0.66 1.98 1.32 3 2 C2.67 2.33 2.34 2.66 2 3 C9.55630105 6.30283481 16.2603308 8.54864512 24.5390625 8.859375 C27 9 27 9 30 10 C30 10.66 30 11.32 30 12 C37.29506086 11.69906577 43.93501697 11.34571104 50.76953125 8.69140625 C54.32371726 7.58967083 57.9167714 7.48254493 61.6171875 7.30859375 C64.26275204 7.14495063 64.26275204 7.14495063 67 5 C69.6875 4.875 69.6875 4.875 72 5 C71 7 71 7 68.4453125 8 C44.5174756 15.20650147 20.75376414 15.32954414 -2 4 C-2.33 3.34 -2.66 2.68 -3 2 C-2.01 1.34 -1.02 0.68 0 0 Z " fill="#1F70B6" transform="translate(106,226)"/>
<path d="M0 0 C5.6303499 1.44032207 8.94944777 3.88228863 12.16690063 8.77418518 C14.24204524 11.72761374 15.83121643 13.68037926 19.38983154 14.65353394 C22.30811425 14.90553353 25.15704467 14.94331832 28.0859375 14.90234375 C29.67131821 14.92078087 29.67131821 14.92078087 31.28872681 14.93959045 C34.65152709 14.97128448 38.01213179 14.95505251 41.375 14.9375 C43.6601766 14.95061087 45.94533754 14.96685164 48.23046875 14.98632812 C53.82063941 15.02715175 59.40977697 15.02867444 65 15 C65 15.66 65 16.32 65 17 C58.50859363 17.22986476 52.01825041 17.38648563 45.52368164 17.49438477 C43.3188557 17.53940097 41.11429473 17.60063744 38.91040039 17.67895508 C18.23778095 18.39470769 18.23778095 18.39470769 11.25 12.71484375 C9.78304748 11.19005945 8.360742 9.62027716 7 8 C5.61496655 6.65545145 4.22103306 5.31991026 2.8125 4 C0 1.15456674 0 1.15456674 0 0 Z " fill="#206FB3" transform="translate(175,124)"/>
<path d="M0 0 C0.99 0.33 1.98 0.66 3 1 C3 1.99 3 2.98 3 4 C3.33 3.505 3.66 3.01 4 2.5 C6.63573156 0.52320133 8.72551163 0.83079715 11.92578125 0.9609375 C14.69355847 1.01306136 17.29305481 0.54138904 20 0 C10.80492959 6.13004694 -0.2709253 8.23173379 -11 10 C-12.10730469 10.18949219 -13.21460938 10.37898438 -14.35546875 10.57421875 C-18.74147489 11.08662461 -23.02745709 11.10869707 -27.4375 11.0625 C-28.26443359 11.05798828 -29.09136719 11.05347656 -29.94335938 11.04882812 C-31.96227146 11.03715811 -33.98114574 11.01922718 -36 11 C-36 10.34 -36 9.68 -36 9 C-28.64825496 8.07226123 -21.34049273 7.69807851 -13.9375 7.4375 C-12.78572266 7.39431641 -11.63394531 7.35113281 -10.44726562 7.30664062 C-7.63160509 7.20149148 -4.81587024 7.09934607 -2 7 C-1.34 4.69 -0.68 2.38 0 0 Z " fill="#1B6EB9" transform="translate(171,257)"/>
<path d="M0 0 C0.33 0 0.66 0 1 0 C0.99214478 1.51352051 0.99214478 1.51352051 0.98413086 3.05761719 C0.96600738 6.80728262 0.95454112 10.55694418 0.94506836 14.30664062 C0.94004495 15.92839204 0.93322506 17.55013895 0.92456055 19.171875 C0.91240771 21.50521969 0.90675172 23.8385044 0.90234375 26.171875 C0.89718246 26.89493835 0.89202118 27.61800171 0.88670349 28.36297607 C0.88632825 31.74327202 1.04580415 34.75469076 2 38 C1.96954727 39.81332157 1.90343345 41.62620389 1.8125 43.4375 C1.73136161 49.4638692 3.08998844 54.35350964 5.125 59.9921875 C6.04164361 63.1431499 6.15584893 65.73691298 6 69 C4.12113567 66.18170351 3.50102776 64.5710809 2.74609375 61.359375 C2.53146484 60.45316406 2.31683594 59.54695313 2.09570312 58.61328125 C1.87849609 57.66839844 1.66128906 56.72351563 1.4375 55.75 C1.21642578 54.82058594 0.99535156 53.89117187 0.76757812 52.93359375 C-1.32173617 44.00824508 -2.19323191 35.59709285 -2.1875 26.4375 C-2.18814453 25.37789062 -2.18878906 24.31828125 -2.18945312 23.2265625 C-2.13637217 15.32232552 -1.53204289 7.76964608 0 0 Z " fill="#1C6FB7" transform="translate(26,118)"/>
<path d="M0 0 C4.04962207 1.25105455 7.60172403 2.77721188 11.3125 4.8125 C16.36713325 7.39036296 21.38624923 9.22696476 26.8125 10.8125 C27.51737549 11.01915283 28.22225098 11.22580566 28.94848633 11.4387207 C43.86317738 15.62144498 58.90198948 14.24863986 74 12 C74 12.66 74 13.32 74 14 C66.77300266 15.74424317 59.98246069 16.2818005 52.5625 16.1875 C51.60279297 16.18685547 50.64308594 16.18621094 49.65429688 16.18554688 C31.41450553 16.07500269 31.41450553 16.07500269 25.015625 12.96875 C22.18172133 11.60671878 19.29053206 10.42667213 16.375 9.25 C14.74691406 8.57710937 14.74691406 8.57710937 13.0859375 7.890625 C9.85523795 6.95822057 8.17506075 7.03213762 5 8 C5 7.34 5 6.68 5 6 C4.34 5.67 3.68 5.34 3 5 C3 4.01 3 3.02 3 2 C2.01 2 1.02 2 0 2 C0 1.34 0 0.68 0 0 Z " fill="#206FB1" transform="translate(93,230)"/>
<path d="M0 0 C1.26120854 3.78362561 0.25482572 5.31394946 -1 9 C-0.505 9.99 -0.505 9.99 0 11 C-0.66 11 -1.32 11 -2 11 C-2.66 13.64 -3.32 16.28 -4 19 C-5.65 18.67 -7.3 18.34 -9 18 C-9.0928125 18.8971875 -9.0928125 18.8971875 -9.1875 19.8125 C-10 22 -10 22 -12.4375 23.4375 C-15.54432573 25.33190593 -15.73144083 26.70174616 -17 30 C-19.95277974 32.06694582 -21.23723611 32 -25 32 C-25.33 32.99 -25.66 33.98 -26 35 C-29.465 35.495 -29.465 35.495 -33 36 C-30.50681781 33.94679114 -28.05019938 32.03152054 -25.3125 30.3125 C-13.93945906 22.76945486 -5.5984518 12.36324771 0 0 Z " fill="#1270C6" transform="translate(206,174)"/>
<path d="M0 0 C0.5625 1.9375 0.5625 1.9375 1 4 C0.67 4.33 0.34 4.66 0 5 C-0.09967573 6.80638756 -0.13080538 8.61664686 -0.1328125 10.42578125 C-0.13410156 11.53244141 -0.13539062 12.63910156 -0.13671875 13.77929688 C-0.13285156 14.94525391 -0.12898438 16.11121094 -0.125 17.3125 C-0.12886719 18.46685547 -0.13273437 19.62121094 -0.13671875 20.81054688 C-0.13542969 21.92107422 -0.13414063 23.03160156 -0.1328125 24.17578125 C-0.13168457 25.19583252 -0.13055664 26.21588379 -0.12939453 27.2668457 C-0.014478 29.69418649 0.35232203 31.67465835 1 34 C1.17343478 36.08121732 1.31645604 38.1650795 1.4375 40.25 C1.7982816 45.41150447 2.54238607 50.04411262 4 55 C3.34 55 2.68 55 2 55 C-2.4332266 42.85612572 -3.50972334 31.31379572 -3.5 18.5 C-3.50394775 17.75718781 -3.50789551 17.01437561 -3.51196289 16.24905396 C-3.51738544 14.1132469 -3.49845117 11.97933101 -3.46875 9.84375 C-3.45263672 8.59787109 -3.43652344 7.35199219 -3.41992188 6.06835938 C-3 3 -3 3 -1.47070312 1.07226562 C-0.98537109 0.71841797 -0.50003906 0.36457031 0 0 Z " fill="#1D70B8" transform="translate(56,123)"/>
<path d="M0 0 C6.5705166 -0.24794402 12.56971459 0.67611771 19 2 C19 2.99 19 3.98 19 5 C19.59941406 4.77570313 20.19882813 4.55140625 20.81640625 4.3203125 C21.89728516 4.16175781 21.89728516 4.16175781 23 4 C24.52734375 5.1796875 24.52734375 5.1796875 25.9375 6.875 C28.2434443 9.55032276 28.2434443 9.55032276 31.625 10.375 C34 11 34 11 35.09375 12.75390625 C35.76842379 14.18247689 36.40827809 15.62814703 37.0078125 17.08984375 C37.97850403 19.33427983 37.97850403 19.33427983 41 21 C40.505 22.485 40.505 22.485 40 24 C39.44054687 23.3709375 38.88109375 22.741875 38.3046875 22.09375 C27.97437975 11.06589736 14.98354846 3.75099018 0 1 C0 0.67 0 0.34 0 0 Z " fill="#1474C4" transform="translate(155,71)"/>
<path d="M0 0 C0.66 0 1.32 0 2 0 C2.67305018 1.60149886 3.33822227 3.20631029 4 4.8125 C4.37125 5.70582031 4.7425 6.59914062 5.125 7.51953125 C6 10 6 10 6 13 C6.66 13 7.32 13 8 13 C9.5625 14.0625 9.5625 14.0625 11 16 C11.6875 19.6875 11.6875 19.6875 12 23 C12.99 22.67 13.98 22.34 15 22 C15.28875 22.9075 15.5775 23.815 15.875 24.75 C17.15707036 28.51392586 17.15707036 28.51392586 19 32 C20.485 32.495 20.485 32.495 22 33 C22.6875 35.0625 22.6875 35.0625 23 37 C23.66 37 24.32 37 25 37 C25.66 38.98 26.32 40.96 27 43 C14.42203133 33.96966352 5.5249984 17.26422543 0 3 C0 2.01 0 1.02 0 0 Z " fill="#206FB6" transform="translate(32,187)"/>
<path d="M0 0 C0.33 0 0.66 0 1 0 C1.50230061 25.11503067 1.50230061 25.11503067 -4 37 C-5.07623591 40.31187143 -6.04961301 43.65005436 -7 47 C-7.66 47 -8.32 47 -9 47 C-9 47.94875 -9 48.8975 -9 49.875 C-9.74951321 55.66885607 -14.27632491 59.78435872 -18 64 C-18.66 63.67 -19.32 63.34 -20 63 C-19.23816406 61.83597656 -19.23816406 61.83597656 -18.4609375 60.6484375 C-6.19926111 41.4063311 -1.74705381 22.43584897 0 0 Z " fill="#236FB3" transform="translate(240,142)"/>
<path d="M0 0 C30.03 0 60.06 0 91 0 C91 0.33 91 0.66 91 1 C61.96 1 32.92 1 3 1 C3.99 2.65 4.98 4.3 6 6 C2.21503862 4.48601545 1.9927802 3.9855604 0 0 Z " fill="#2369A6" transform="translate(169,118)"/>
<path d="M0 0 C0.52207031 0.18175781 1.04414062 0.36351562 1.58203125 0.55078125 C11.72148183 4.01346577 20.95845668 6.56218143 31.75 6.5 C32.79043457 6.50008057 33.83086914 6.50016113 34.90283203 6.50024414 C42.73709893 6.3539964 49.15354003 4.97353885 56.3671875 1.99609375 C57.23601562 1.66738281 58.10484375 1.33867187 59 1 C59.66 1.33 60.32 1.66 61 2 C54.47675092 6.65946363 49.45366015 8.25179118 41.44140625 8.265625 C40.38033913 8.26849518 40.38033913 8.26849518 39.2978363 8.27142334 C37.80947512 8.27277745 36.32110181 8.26913538 34.83276367 8.26074219 C32.57247983 8.25004722 30.31299354 8.26065518 28.05273438 8.2734375 C26.5989566 8.27211546 25.14517932 8.26955213 23.69140625 8.265625 C22.38373291 8.26336914 21.07605957 8.26111328 19.72875977 8.25878906 C13.91997216 7.85563874 9.06901687 6.30188678 4.0625 3.375 C3.29035156 2.92898437 2.51820312 2.48296875 1.72265625 2.0234375 C0.86994141 1.51683594 0.86994141 1.51683594 0 1 C0 0.67 0 0.34 0 0 Z " fill="#246EB1" transform="translate(112,209)"/>
<path d="M0 0 C5.59100798 2.23640319 5.59100798 2.23640319 8.3125 5.1875 C11.3359891 8.34782805 14.4901847 11.23453553 17.80078125 14.08984375 C21.91970352 17.66738014 25.95239224 21.34222332 30 25 C29.01 25.33 28.02 25.66 27 26 C26.3503125 25.0409375 26.3503125 25.0409375 25.6875 24.0625 C24.08760823 21.73253997 24.08760823 21.73253997 21 21 C21 20.34 21 19.68 21 19 C20.01 18.67 19.02 18.34 18 18 C15.8125 16.0625 15.8125 16.0625 14 14 C14 13.34 14 12.68 14 12 C12.02 11.34 10.04 10.68 8 10 C8 9.34 8 8.68 8 8 C7.34 8 6.68 8 6 8 C5.731875 7.360625 5.46375 6.72125 5.1875 6.0625 C4.11332248 3.66868314 4.11332248 3.66868314 1 3 C1.11442461 4.60495567 1.24194694 6.20898119 1.375 7.8125 C1.44460937 8.70582031 1.51421875 9.59914063 1.5859375 10.51953125 C1.86645036 13.24398499 1.86645036 13.24398499 4 16 C2.68 15.34 1.36 14.68 0 14 C0 9.38 0 4.76 0 0 Z " fill="#1B6FB5" transform="translate(152,115)"/>
<path d="M0 0 C-0.47409648 4.31730413 -3.03396703 6.33647461 -6.0625 9.25 C-6.98160156 10.14203125 -7.90070313 11.0340625 -8.84765625 11.953125 C-9.55792969 12.62859375 -10.26820313 13.3040625 -11 14 C-11.33 13.01 -11.66 12.02 -12 11 C-11.34 11 -10.68 11 -10 11 C-9.67 9.68 -9.34 8.36 -9 7 C-8.01 7 -7.02 7 -6 7 C-6 6.01 -6 5.02 -6 4 C-12.6 3.67 -19.2 3.34 -26 3 C-26 2.34 -26 1.68 -26 1 C-22.22921314 0.83227069 -18.45836341 0.66599875 -14.6875 0.5 C-13.61564453 0.45230469 -12.54378906 0.40460937 -11.43945312 0.35546875 C-9.89741211 0.28779297 -9.89741211 0.28779297 -8.32421875 0.21875 C-7.37635498 0.17685547 -6.42849121 0.13496094 -5.4519043 0.09179688 C-3.63561776 0.0237969 -1.81755902 0 0 0 Z " fill="#1A72C1" transform="translate(252,52)"/>
<path d="M0 0 C1.9375 0.375 1.9375 0.375 4 1 C5.71260365 4.4252073 4.40416721 8.20736558 3.8125 11.875 C3.67739014 12.72747314 3.54228027 13.57994629 3.40307617 14.45825195 C2.25985191 21.26168941 0.52915143 27.5679956 -2 34 C-3.13732426 30.59598052 -2.83989957 28.22543336 -2.0625 24.75 C-1.77052734 23.41195312 -1.77052734 23.41195312 -1.47265625 22.046875 C-1.31667969 21.37140625 -1.16070312 20.6959375 -1 20 C-0.34 20 0.32 20 1 20 C1 14.72 1 9.44 1 4 C0.34 4 -0.32 4 -1 4 C-1.33 5.98 -1.66 7.96 -2 10 C-2.66 10 -3.32 10 -4 10 C-4 7.36 -4 4.72 -4 2 C-2.68 2 -1.36 2 0 2 C0 1.34 0 0.68 0 0 Z " fill="#0C72D7" transform="translate(230,146)"/>
<path d="M0 0 C6.05720934 0.3907877 10.75877612 1.51324481 16.328125 3.8828125 C22.73371649 6.56117386 29.17769077 8.98937139 36.125 9.625 C40 10 40 10 42 12 C26.88754295 11.49792502 13.7690296 6.78530656 0 1 C0 0.67 0 0.34 0 0 Z " fill="#1C6EBB" transform="translate(92,255)"/>
<path d="M0 0 C0.99 0 1.98 0 3 0 C-0.30650398 11.98607692 -7.0125167 22.56478536 -15 32 C-15.33 30.68 -15.66 29.36 -16 28 C-15.34 28 -14.68 28 -14 28 C-13.731875 27.195625 -13.46375 26.39125 -13.1875 25.5625 C-12.795625 24.716875 -12.40375 23.87125 -12 23 C-11.01 22.67 -10.02 22.34 -9 22 C-9 20.68 -9 19.36 -9 18 C-8.34 17.67 -7.68 17.34 -7 17 C-6.21984379 15.17489003 -5.52204594 13.31393324 -4.875 11.4375 C-4.52179688 10.42558594 -4.16859375 9.41367188 -3.8046875 8.37109375 C-3.40636719 7.19740234 -3.40636719 7.19740234 -3 6 C-2.34 6 -1.68 6 -1 6 C-0.67 4.02 -0.34 2.04 0 0 Z " fill="#1B6DB5" transform="translate(250,192)"/>
<path d="M0 0 C1 2 1 2 -0.1796875 5.58984375 C-0.73709609 7.0420398 -1.30256967 8.49115937 -1.875 9.9375 C-2.43518417 11.38400295 -2.99509064 12.83061349 -3.5546875 14.27734375 C-4.03164063 15.50582031 -4.50859375 16.73429687 -5 18 C-5.33 18.99 -5.66 19.98 -6 21 C-6.66 21 -7.32 21 -8 21 C-8 22.98 -8 24.96 -8 27 C-8.99 27.33 -9.98 27.66 -11 28 C-11.12375 29.0725 -11.2475 30.145 -11.375 31.25 C-11.89643936 34.37863615 -12.40088254 36.33480424 -14 39 C-13.42999305 33.13423084 -12.2614045 27.88911499 -10.375 22.3125 C-9.98610596 21.14871826 -9.98610596 21.14871826 -9.58935547 19.96142578 C-7.12245769 12.85904138 -3.85157436 6.44967778 0 0 Z " fill="#1D70B5" transform="translate(41,79)"/>
<path d="M0 0 C3.63 0 7.26 0 11 0 C11 0.99 11 1.98 11 3 C13.97 3.33 16.94 3.66 20 4 C20 4.99 20 5.98 20 7 C22.31 7 24.62 7 27 7 C27 7.66 27 8.32 27 9 C27.99 9.33 28.98 9.66 30 10 C30.33 10.99 30.66 11.98 31 13 C33.00016466 14.20882096 33.00016466 14.20882096 35 15 C31.75906183 15 30.76066818 14.50601795 28.0078125 12.953125 C27.22575439 12.52177246 26.44369629 12.09041992 25.63793945 11.64599609 C24.39403442 10.95497803 24.39403442 10.95497803 23.125 10.25 C15.56265767 6.14054837 8.40179788 3.02125838 0 1 C0 0.67 0 0.34 0 0 Z " fill="#2073BA" transform="translate(166,44)"/>
<path d="M0 0 C0.7734375 0.433125 0.7734375 0.433125 1.5625 0.875 C4.04014033 2.14250318 4.04014033 2.14250318 7.125 2.5625 C14.36299422 4.48533648 19.8889969 11.85374861 25 17 C23.72125 16.71125 22.4425 16.4225 21.125 16.125 C20.40570313 15.96257812 19.68640625 15.80015625 18.9453125 15.6328125 C17 15 17 15 15 13 C14.01 13.495 14.01 13.495 13 14 C13.103125 13.236875 13.20625 12.47375 13.3125 11.6875 C13.29770489 8.84437538 13.29770489 8.84437538 10.9375 7.3125 C7.68227166 5.85803627 4.45195915 4.87991116 1 4 C0.67 2.68 0.34 1.36 0 0 Z " fill="#1570BE" transform="translate(68,213)"/>
<path d="M0 0 C0.99 0.495 0.99 0.495 2 1 C2.6328125 3.50390625 2.6328125 3.50390625 3.125 6.5625 C3.29257813 7.57441406 3.46015625 8.58632812 3.6328125 9.62890625 C3.75398437 10.41136719 3.87515625 11.19382812 4 12 C4.45890625 11.60167969 4.9178125 11.20335938 5.390625 10.79296875 C8.52271585 8.08857938 11.63877459 5.42008229 15 3 C13.16941272 8.49176185 10.44719279 13.74921257 5.1875 16.4375 C4.465625 16.623125 3.74375 16.80875 3 17 C0.84940691 13.46813168 0.6202272 10.33712007 0.375 6.25 C0.30023438 5.07953125 0.22546875 3.9090625 0.1484375 2.703125 C0.09945312 1.81109375 0.05046875 0.9190625 0 0 Z " fill="#1B77C2" transform="translate(200,68)"/>
<path d="M0 0 C0.71542969 0.721875 1.43085937 1.44375 2.16796875 2.1875 C8.95832112 8.93102236 15.64001427 15.26793261 24 20 C22.68 20.33 21.36 20.66 20 21 C20 20.34 20 19.68 20 19 C19.05125 18.731875 18.1025 18.46375 17.125 18.1875 C14 17 14 17 12 14 C11.05125 13.690625 10.1025 13.38125 9.125 13.0625 C4.9897741 11.65652319 3.03664762 9.65863619 0.75 6 C0 4 0 4 0 0 Z " fill="#1770BE" transform="translate(88,188)"/>
<path d="M0 0 C0 0.33 0 0.66 0 1 C-0.71019287 0.99476318 -1.42038574 0.98952637 -2.15209961 0.98413086 C-5.4138905 0.96316239 -8.67566714 0.95027719 -11.9375 0.9375 C-13.05447266 0.92912109 -14.17144531 0.92074219 -15.32226562 0.91210938 C-26.33014751 0.75006791 -26.33014751 0.75006791 -37 3.0625 C-41.03945514 4.32482973 -44.80294263 4.16788229 -49 4 C-45.07842883 1.58833858 -40.84642255 1.07735059 -36.375 0.375 C-35.54121826 0.24383789 -34.70743652 0.11267578 -33.84838867 -0.02246094 C-22.52713937 -1.66306731 -11.31519661 -1.57472994 0 0 Z " fill="#266BA9" transform="translate(161,20)"/>
<path d="M0 0 C1.98 0 3.96 0 6 0 C6 0.99 6 1.98 6 3 C10.95 3 15.9 3 21 3 C21 4.98 21 6.96 21 9 C20.01 9.66 19.02 10.32 18 11 C17.01 10.67 16.02 10.34 15 10 C16.32 8.68 17.64 7.36 19 6 C18.04738281 5.98582031 17.09476563 5.97164063 16.11328125 5.95703125 C4.59330313 5.51896425 4.59330313 5.51896425 1.625 2.4375 C0.820625 1.2309375 0.820625 1.2309375 0 0 Z " fill="#1C6FB9" transform="translate(200,60)"/>
<path d="M0 0 C0.33 0 0.66 0 1 0 C1.08636719 0.98097656 1.17273438 1.96195313 1.26171875 2.97265625 C2.43966422 14.76830773 5.52837931 25.0072658 10 36 C8.68 35.67 7.36 35.34 6 35 C5.49363393 33.25183142 4.99515381 31.50137737 4.5 29.75 C4.2215625 28.77546875 3.943125 27.8009375 3.65625 26.796875 C3 24 3 24 3 20 C2.34 20 1.68 20 1 20 C-0.59295252 12.95678017 -1.1710655 7.14349955 0 0 Z " fill="#226AB0" transform="translate(74,145)"/>
<path d="M0 0 C0.33 0 0.66 0 1 0 C1.0093457 0.60247559 1.01869141 1.20495117 1.02832031 1.82568359 C1.29029764 15.35861049 2.48798548 27.91570406 6 41 C5.34 41 4.68 41 4 41 C-2.93904818 29.12180398 -1.12063924 13.05612217 0 0 Z " fill="#1773C3" transform="translate(45,132)"/>
<path d="M0 0 C0.33 0.99 0.66 1.98 1 3 C0.67 3.33 0.34 3.66 0 4 C-0.23287008 5.68183948 -0.41264166 7.3712416 -0.5625 9.0625 C-0.68818359 10.44115234 -0.68818359 10.44115234 -0.81640625 11.84765625 C-0.87699219 12.55792969 -0.93757813 13.26820312 -1 14 C-0.34 14 0.32 14 1 14 C1.20625 13.05125 1.4125 12.1025 1.625 11.125 C3 8 3 8 6.125 6.625 C7.07375 6.41875 8.0225 6.2125 9 6 C7.53033642 9.39859703 5.61962486 11.64963709 3 14.25 C2.29875 14.95640625 1.5975 15.6628125 0.875 16.390625 C-1 18 -1 18 -3 18 C-3.08119503 15.75059705 -3.13927819 13.50035129 -3.1875 11.25 C-3.22230469 9.99703125 -3.25710937 8.7440625 -3.29296875 7.453125 C-2.98802939 3.85890643 -2.45605371 2.55274874 0 0 Z " fill="#136ABA" transform="translate(56,100)"/>
<path d="M0 0 C0.66 0.33 1.32 0.66 2 1 C1.67 1.99 1.34 2.98 1 4 C-1.31 4.33 -3.62 4.66 -6 5 C-6 5.66 -6 6.32 -6 7 C-7.5 8.625 -7.5 8.625 -9 10 C-8.34 10 -7.68 10 -7 10 C-7 10.66 -7 11.32 -7 12 C-8.60341555 12.33692785 -10.20776555 12.66941093 -11.8125 13 C-12.70582031 13.185625 -13.59914063 13.37125 -14.51953125 13.5625 C-17 14 -17 14 -20 14 C-7.30415991 3.35710427 -7.30415991 3.35710427 0 0 Z " fill="#196FBD" transform="translate(89,32)"/>
<path d="M0 0 C0.99 0.33 1.98 0.66 3 1 C3.76681614 10.73004484 3.76681614 10.73004484 1.88671875 13.84375 C0.5 15.1875 0.5 15.1875 -2 17 C-2 15.68 -2 14.36 -2 13 C-1.34 13 -0.68 13 0 13 C-0.33 10.69 -0.66 8.38 -1 6 C-1.99 6.66 -2.98 7.32 -4 8 C-4.99 8 -5.98 8 -7 8 C-7 6 -7 6 -5.57421875 4.45703125 C-4.95160156 3.91433594 -4.32898438 3.37164062 -3.6875 2.8125 C-3.07261719 2.26207031 -2.45773438 1.71164063 -1.82421875 1.14453125 C-1.22222656 0.76683594 -0.62023437 0.38914062 0 0 Z " fill="#196CBD" transform="translate(140,115)"/>
<path d="M0 0 C12.85491091 1.54521947 23.9519488 6.53512013 35 13 C32 14 32 14 30.1953125 13.1796875 C29.51210937 12.74914063 28.82890625 12.31859375 28.125 11.875 C21.39273657 7.9368459 13.71478443 4.20548564 5.875 3.375 C3 3 3 3 1.0625 1.4375 C0.711875 0.963125 0.36125 0.48875 0 0 Z " fill="#206EB3" transform="translate(168,22)"/>
<path d="M0 0 C0.99 0.33 1.98 0.66 3 1 C3 1.99 3 2.98 3 4 C3.33 3.505 3.66 3.01 4 2.5 C6.63573156 0.52320133 8.72551163 0.83079715 11.92578125 0.9609375 C14.69355847 1.01306136 17.29305481 0.54138904 20 0 C16.95086613 2.03275591 14.08297393 3.32069446 10.6875 4.6875 C9.57761719 5.14511719 8.46773437 5.60273438 7.32421875 6.07421875 C3.73864198 7.07278713 1.57502784 6.89240483 -2 6 C-1.34 4.02 -0.68 2.04 0 0 Z " fill="#1571C6" transform="translate(171,257)"/>
<path d="M0 0 C0.33 0 0.66 0 1 0 C0.95459056 10.30794337 -2.5570223 19.42915374 -6 29 C-8.40841906 21.77474281 -4.50664825 12.91674062 -2 6 C-1.608125 4.824375 -1.21625 3.64875 -0.8125 2.4375 C-0.4103125 1.2309375 -0.4103125 1.2309375 0 0 Z " fill="#1E6DB9" transform="translate(260,163)"/>
<path d="M0 0 C0.33 0.66 0.66 1.32 1 2 C0.01 3.485 0.01 3.485 -1 5 C-1.433125 6.051875 -1.433125 6.051875 -1.875 7.125 C-3 9 -3 9 -4.875 9.5 C-5.57625 9.665 -6.2775 9.83 -7 10 C-7.66 10.66 -8.32 11.32 -9 12 C-11.0819403 14.0819403 -12.14458129 14.59208304 -15 15 C-13.71480435 12.13302508 -12.42870746 10.02392288 -10 8 C-9.34 8 -8.68 8 -8 8 C-7.731875 7.401875 -7.46375 6.80375 -7.1875 6.1875 C-5.28837651 2.68911463 -3.79963639 1.26654546 0 0 Z " fill="#0875D6" transform="translate(74,108)"/>
<path d="M0 0 C1.32 0.66 2.64 1.32 4 2 C3.75 4.375 3.75 4.375 3 7 C1.68352881 7.69937532 0.34977849 8.36729133 -1 9 C-1.80528889 11.05000871 -1.80528889 11.05000871 -2 13 C-2.66 13 -3.32 13 -4 13 C-4.10824843 11.3973218 -4.18570645 9.79254252 -4.25 8.1875 C-4.29640625 7.29417969 -4.3428125 6.40085937 -4.390625 5.48046875 C-4 3 -4 3 -1.984375 1.17578125 C-1.00210938 0.59376953 -1.00210938 0.59376953 0 0 Z " fill="#0576DB" transform="translate(59,101)"/>
<path d="M0 0 C0.99 0.33 1.98 0.66 3 1 C2.43152344 1.52207031 1.86304687 2.04414062 1.27734375 2.58203125 C-3.84003238 7.46019781 -7.79216206 12.3378737 -11.39453125 18.421875 C-13.08002944 21.12851443 -14.96644895 23.54738745 -17 26 C-17 24.68 -17 23.36 -17 22 C-16.34 22 -15.68 22 -15 22 C-15 20.68 -15 19.36 -15 18 C-14.34 18 -13.68 18 -13 18 C-13 16.68 -13 15.36 -13 14 C-12.34 14 -11.68 14 -11 14 C-10.938125 13.443125 -10.87625 12.88625 -10.8125 12.3125 C-9.6523629 9.01057134 -7.54440205 7.37092009 -5 5 C-3.6078125 3.6078125 -3.6078125 3.6078125 -2.1875 2.1875 C-1.465625 1.465625 -0.74375 0.74375 0 0 Z " fill="#1F6EB2" transform="translate(98,85)"/>
<path d="M0 0 C0 1.66666667 0 3.33333333 0 5 C0.99 5.33 1.98 5.66 3 6 C3.66 5.67 4.32 5.34 5 5 C5 7.31 5 9.62 5 12 C6.32 12 7.64 12 9 12 C9 13.32 9 14.64 9 16 C5.52224821 14.48446596 3.0442016 12.4226544 0.25 9.875 C-0.54921875 9.15054688 -1.3484375 8.42609375 -2.171875 7.6796875 C-3.07679687 6.84824219 -3.07679687 6.84824219 -4 6 C-3.6875 4.125 -3.6875 4.125 -3 2 C-2.01 1.34 -1.02 0.68 0 0 Z " fill="#1D70BD" transform="translate(114,139)"/>
<path d="M0 0 C1 2 1 2 0.03125 5.30078125 C-4.88223244 18.63523715 -4.88223244 18.63523715 -12 22 C-14.9375 22.8125 -14.9375 22.8125 -17 23 C-15.70769628 20.41539256 -14.63173765 20.32149319 -12 19.25 C-9.81016823 18.28264704 -9.81016823 18.28264704 -8 17 C-7.10169161 13.94727535 -7.10169161 13.94727535 -7 11 C-6.01 10.34 -5.02 9.68 -4 9 C-3.26656572 5.93443402 -3.26656572 5.93443402 -3 3 C-2.34 3 -1.68 3 -1 3 C-0.67 2.01 -0.34 1.02 0 0 Z " fill="#1768B4" transform="translate(195,208)"/>
<path d="M0 0 C5.83096952 3.10157953 10.86601899 6.85556181 16 11 C15.01 11.495 15.01 11.495 14 12 C13.1028125 11.2265625 13.1028125 11.2265625 12.1875 10.4375 C11.465625 9.963125 10.74375 9.48875 10 9 C6.9254644 9.7763932 6.9254644 9.7763932 5 12 C4.67 9.69 4.34 7.38 4 5 C3.01 4.67 2.02 4.34 1 4 C0.3125 1.9375 0.3125 1.9375 0 0 Z " fill="#1575C8" transform="translate(204,36)"/>
<path d="M0 0 C1.134375 0.020625 2.26875 0.04125 3.4375 0.0625 C-0.75272552 2.36447199 -5.27901218 3.66959825 -9.81054688 5.11914062 C-14.18126706 6.54062105 -18.36060034 8.19800895 -22.5625 10.0625 C-22.5625 9.4025 -22.5625 8.7425 -22.5625 8.0625 C-20.9125 7.4025 -19.2625 6.7425 -17.5625 6.0625 C-17.5625 5.4025 -17.5625 4.7425 -17.5625 4.0625 C-14.39241003 1.94910669 -13.12098959 1.75236736 -9.4375 1.5 C-5.77615363 1.23999134 -3.54658204 0.06222074 0 0 Z " fill="#1C70B8" transform="translate(121.5625,42.9375)"/>
<path d="M0 0 C8.25 0 16.5 0 25 0 C25 0.33 25 0.66 25 1 C16.585 1.495 16.585 1.495 8 2 C7.34 3.32 6.68 4.64 6 6 C4.35 5.67 2.7 5.34 1 5 C1.33 3.68 1.66 2.36 2 1 C1.34 0.67 0.68 0.34 0 0 Z " fill="#0975D3" transform="translate(130,217)"/>
<path d="M0 0 C1.26120854 3.78362561 0.25482572 5.31394946 -1 9 C-0.67 9.66 -0.34 10.32 0 11 C-0.66 11 -1.32 11 -2 11 C-2.66 13.64 -3.32 16.28 -4 19 C-5.32 18.34 -6.64 17.68 -8 17 C-6.3341708 10.83643195 -3.12194714 5.51740344 0 0 Z " fill="#126FC7" transform="translate(206,174)"/>
<path d="M0 0 C1.32 0.66 2.64 1.32 4 2 C0.37 5.3 -3.26 8.6 -7 12 C-4.525 15.465 -4.525 15.465 -2 19 C-4.66666667 17.66666667 -7.33333333 16.33333333 -10 15 C-9.67 13.35 -9.34 11.7 -9 10 C-8.01 9.67 -7.02 9.34 -6 9 C-6 8.01 -6 7.02 -6 6 C-5.01 6 -4.02 6 -3 6 C-3 5.34 -3 4.68 -3 4 C-2.01 4 -1.02 4 0 4 C0 2.68 0 1.36 0 0 Z " fill="#1D70B9" transform="translate(134,131)"/>
<path d="M0 0 C3.19218343 0.85124892 5.47399831 1.4915317 7.875 3.8125 C9.20193689 6.39265507 9.23861338 8.13663949 9 11 C8.13375 11.37125 7.2675 11.7425 6.375 12.125 C2.43358021 14.31467766 0.06365854 16.71750871 -3 20 C-3.66 19.67 -4.32 19.34 -5 19 C-1 15 3 11 7 7 C6.24203125 6.36771484 6.24203125 6.36771484 5.46875 5.72265625 C4.8190625 5.17480469 4.169375 4.62695312 3.5 4.0625 C2.8503125 3.51722656 2.200625 2.97195312 1.53125 2.41015625 C1.0259375 1.94480469 0.520625 1.47945312 0 1 C0 0.67 0 0.34 0 0 Z " fill="#1D6EB6" transform="translate(161,136)"/>
<path d="M0 0 C0 0.99 0 1.98 0 3 C-0.66 3.639375 -1.32 4.27875 -2 4.9375 C-4.46409722 6.99977339 -4.46409722 6.99977339 -4 11 C-5.45381897 11.69699552 -6.91322953 12.38233866 -8.375 13.0625 C-9.18710938 13.44535156 -9.99921875 13.82820312 -10.8359375 14.22265625 C-11.55007812 14.47917969 -12.26421875 14.73570312 -13 15 C-13.66 14.67 -14.32 14.34 -15 14 C-10.05 9.38 -5.1 4.76 0 0 Z " fill="#1D71BC" transform="translate(130,124)"/>
<path d="M0 0 C0.59941406 0.31453125 1.19882813 0.6290625 1.81640625 0.953125 C5.68094518 2.80589143 8.7685825 3.40154919 12.875 2.0625 C13.57625 1.711875 14.2775 1.36125 15 1 C14.09827532 2.17825358 13.17798498 3.34231577 12.25 4.5 C11.73953125 5.1496875 11.2290625 5.799375 10.703125 6.46875 C9 8 9 8 5 8 C3.515625 6.25 3.515625 6.25 2.25 4 C1.82203125 3.2575 1.3940625 2.515 0.953125 1.75 C0.63859375 1.1725 0.3240625 0.595 0 0 Z " fill="#1A6EBA" transform="translate(196,95)"/>
<path d="M0 0 C1.67542976 0.28604898 3.34385343 0.61781233 5 1 C4 3 3 5 2 7 C1.84693099 8.81171098 1.75053339 10.6283794 1.68359375 12.4453125 C1.64169922 13.52167969 1.59980469 14.59804687 1.55664062 15.70703125 C1.49766602 17.39892578 1.49766602 17.39892578 1.4375 19.125 C1.39431641 20.26066406 1.35113281 21.39632812 1.30664062 22.56640625 C1.2003396 25.37747768 1.09830595 28.18863945 1 31 C0.67 31 0.34 31 0 31 C-0.16727437 26.74607233 -0.32786758 22.49196191 -0.48217773 18.23754883 C-0.53566237 16.78923699 -0.59099659 15.34099225 -0.64819336 13.89282227 C-0.72992512 11.81541418 -0.80507768 9.7378583 -0.87890625 7.66015625 C-0.9260376 6.40855713 -0.97316895 5.15695801 -1.02172852 3.86743164 C-1 1 -1 1 0 0 Z " fill="#216FAF" transform="translate(65,75)"/>
<path d="M0 0 C0.66 0.33 1.32 0.66 2 1 C1.34 1.66 0.68 2.32 0 3 C-0.46006346 5.20250992 -0.46006346 5.20250992 -0.625 7.625 C-0.69976562 8.44226563 -0.77453125 9.25953125 -0.8515625 10.1015625 C-0.92503906 11.04128906 -0.92503906 11.04128906 -1 12 C0.134375 11.38125 1.26875 10.7625 2.4375 10.125 C3.07558594 9.77695313 3.71367187 9.42890625 4.37109375 9.0703125 C6.16618315 8.08589976 6.16618315 8.08589976 7 6 C7.99 6.33 8.98 6.66 10 7 C8.38050958 8.50594681 6.75424026 10.00460668 5.125 11.5 C4.22007812 12.3353125 3.31515625 13.170625 2.3828125 14.03125 C0 16 0 16 -2 16 C-2.05384521 13.70858714 -2.09272087 11.41681812 -2.125 9.125 C-2.14820313 7.84882813 -2.17140625 6.57265625 -2.1953125 5.2578125 C-2 2 -2 2 0 0 Z " fill="#2570AC" transform="translate(154,156)"/>
<path d="M0 0 C0.66 0 1.32 0 2 0 C1.33408237 3.58624389 0.4676978 7.09620974 -0.45996094 10.62304688 C-2.23364547 17.40346116 -3.66197653 23.96911187 -4 31 C-4.33 31 -4.66 31 -5 31 C-5.36282883 16.46668944 -5.36282883 16.46668944 -3 10 C-2.45027442 8.18992795 -1.90905034 6.37725873 -1.375 4.5625 C-0.91712214 3.04152948 -0.45894807 1.52064794 0 0 Z " fill="#276EAE" transform="translate(79,111)"/>
<path d="M0 0 C1.32 0.33 2.64 0.66 4 1 C4 1.66 4 2.32 4 3 C4.66 3 5.32 3 6 3 C6 3.66 6 4.32 6 5 C6.99 5 7.98 5 9 5 C9 6.32 9 7.64 9 9 C7.02 9.33 5.04 9.66 3 10 C3 8 3 6 3 4 C2.01 3.67 1.02 3.34 0 3 C0 2.01 0 1.02 0 0 Z " fill="#0476DF" transform="translate(154,120)"/>
<path d="M0 0 C0.66 0.33 1.32 0.66 2 1 C2 4 2 4 0.125 6.1875 C-2 8 -2 8 -4 8 C-4 8.66 -4 9.32 -4 10 C-4.7425 10.268125 -5.485 10.53625 -6.25 10.8125 C-8.86636554 11.94229421 -10.80187111 13.20893202 -13 15 C-11.38989473 10.92623969 -8.46177729 8.23492931 -5.375 5.25 C-4.859375 4.74339844 -4.34375 4.23679687 -3.8125 3.71484375 C-2.54616661 2.47196098 -1.2736856 1.23534724 0 0 Z " fill="#1E6FBA" transform="translate(67,47)"/>
<path d="M0 0 C1.9375 0.375 1.9375 0.375 4 1 C4.33 1.66 4.66 2.32 5 3 C3.68 2.67 2.36 2.34 1 2 C1.9977758 4.99332739 2.7522025 5.94766315 5 8 C4.67 8.99 4.34 9.98 4 11 C5.87197454 13.69433317 5.87197454 13.69433317 8 16 C7.67 16.66 7.34 17.32 7 18 C0.32017937 11.89955157 0.32017937 11.89955157 -0.46484375 7.2421875 C-0.44042657 4.79349275 -0.31342028 2.42776347 0 0 Z " fill="#0F73CA" transform="translate(153,118)"/>
<path d="M0 0 C0.33 0.99 0.66 1.98 1 3 C12.55 3 24.1 3 36 3 C36 3.33 36 3.66 36 4 C23.46 4 10.92 4 -2 4 C-1.34 2.68 -0.68 1.36 0 0 Z " fill="#2C6DA3" transform="translate(171,165)"/>
<path d="M0 0 C1.671549 0.30791692 3.33805547 0.64386903 5 1 C5.99 1 6.98 1 8 1 C7.04882866 2.1725131 6.08882991 3.33787015 5.125 4.5 C4.59132812 5.1496875 4.05765625 5.799375 3.5078125 6.46875 C3.01023438 6.9740625 2.51265625 7.479375 2 8 C1.34 8 0.68 8 0 8 C-0.38063221 5.6739143 -0.71269945 3.33944736 -1 1 C-0.67 0.67 -0.34 0.34 0 0 Z " fill="#1073C7" transform="translate(195,200)"/>
<path d="M0 0 C2.26785402 3.40178104 2.12069713 3.69005597 1.375 7.4375 C0.7946767 11.17689101 0.7946767 11.17689101 2.6875 14.4375 C4.74791736 15.82967389 6.71561851 17.02097936 9 18 C6.69 18 4.38 18 2 18 C2 17.34 2 16.68 2 16 C1.34 16 0.68 16 0 16 C-1.75 14.3125 -1.75 14.3125 -3 12 C-2.25 9.6875 -2.25 9.6875 -1 7 C-0.6186926 4.67402489 -0.27539746 2.34087842 0 0 Z " fill="#176CB6" transform="translate(51,175)"/>
<path d="M0 0 C0 0.66 0 1.32 0 2 C-2.05078125 2.22786458 -4.1015625 2.45572917 -6.15234375 2.68359375 C-8.01140229 2.81886614 -8.01140229 2.81886614 -9 4 C-9.07148199 5.35243917 -9.08399454 6.70834367 -9.0625 8.0625 C-9.041875 9.361875 -9.02125 10.66125 -9 12 C-9.99 12 -10.98 12 -12 12 C-12.05395478 10.37536158 -12.09277195 8.75021459 -12.125 7.125 C-12.14820313 6.22007813 -12.17140625 5.31515625 -12.1953125 4.3828125 C-12 2 -12 2 -10 0 C-6.33865009 -1.08850943 -3.68061127 -0.9464429 0 0 Z " fill="#146DB9" transform="translate(54,90)"/>
<path d="M0 0 C8.30963736 6.62494376 8.30963736 6.62494376 10 11 C10.22711237 14.3499075 10.17569646 17.64875263 10 21 C8.68 21 7.36 21 6 21 C5.67 20.34 5.34 19.68 5 19 C5.99 19 6.98 19 8 19 C7.93510189 12.00623169 7.93510189 12.00623169 4.5625 6.125 C3.716875 5.42375 2.87125 4.7225 2 4 C0.83984375 1.8671875 0.83984375 1.8671875 0 0 Z " fill="#276AAD" transform="translate(133,150)"/>
<path d="M0 0 C1.32 0.33 2.64 0.66 4 1 C-0.29 5.29 -4.58 9.58 -9 14 C-9 9.92253115 -7.47931949 8.16801935 -5 5 C-2.75 4.125 -2.75 4.125 -1 4 C-0.67 2.68 -0.34 1.36 0 0 Z " fill="#1E70B8" transform="translate(236,66)"/>
<path d="M0 0 C0 3 0 3 -1 5 C-1.825 5.391875 -2.65 5.78375 -3.5 6.1875 C-6.39876705 7.86679847 -6.39876705 7.86679847 -6.8125 11.6875 C-6.874375 12.780625 -6.93625 13.87375 -7 15 C-7.66 14.67 -8.32 14.34 -9 14 C-9 11.36 -9 8.72 -9 6 C-9.99 6 -10.98 6 -12 6 C-10.35 4.68 -8.7 3.36 -7 2 C-7 2.99 -7 3.98 -7 5 C-3.32159111 2.72692336 -3.32159111 2.72692336 0 0 Z " fill="#1D6FB5" transform="translate(216,199)"/>
<path d="M0 0 C-3.61328125 4.6875 -3.61328125 4.6875 -5 6 C-8.11227195 6 -10.94152152 5.54372951 -14 5 C-10.63156097 2.05261585 -4.40469071 -2.20234535 0 0 Z " fill="#1974C3" transform="translate(117,53)"/>
<path d="M0 0 C-0.3125 1.875 -0.3125 1.875 -1 4 C-1.99 4.66 -2.98 5.32 -4 6 C-4 4.68 -4 3.36 -4 2 C-11.26 2 -18.52 2 -26 2 C-26 1.67 -26 1.34 -26 1 C-22.22921314 0.83227069 -18.45836341 0.66599875 -14.6875 0.5 C-13.61564453 0.45230469 -12.54378906 0.40460937 -11.43945312 0.35546875 C-9.89741211 0.28779297 -9.89741211 0.28779297 -8.32421875 0.21875 C-7.37635498 0.17685547 -6.42849121 0.13496094 -5.4519043 0.09179688 C-3.63561776 0.0237969 -1.81755902 0 0 0 Z " fill="#2D6FAB" transform="translate(252,52)"/>
<path d="M0 0 C2.64 0 5.28 0 8 0 C8 0.66 8 1.32 8 2 C4.86149936 2.92553743 2.06319222 3.11664647 -1.203125 3.09765625 C-2.1828125 3.09443359 -3.1625 3.09121094 -4.171875 3.08789062 C-5.18765625 3.07951172 -6.2034375 3.07113281 -7.25 3.0625 C-8.796875 3.05573242 -8.796875 3.05573242 -10.375 3.04882812 C-12.91672573 3.03706088 -15.45833319 3.02062011 -18 3 C-18 2.67 -18 2.34 -18 2 C-12.06 2 -6.12 2 0 2 C0 1.34 0 0.68 0 0 Z " fill="#0474C5" transform="translate(222,146)"/>
<path d="M0 0 C2.31 0 4.62 0 7 0 C7 0.66 7 1.32 7 2 C7.99 2.33 8.98 2.66 10 3 C10.33 3.99 10.66 4.98 11 6 C13.00016466 7.20882096 13.00016466 7.20882096 15 8 C11.07573665 8 9.17100092 6.55673531 5.8125 4.5625 C4.72582031 3.92441406 3.63914063 3.28632812 2.51953125 2.62890625 C1.68808594 2.09136719 0.85664063 1.55382813 0 1 C0 0.67 0 0.34 0 0 Z " fill="#176DBD" transform="translate(186,51)"/>
<path d="M0 0 C0.66 0 1.32 0 2 0 C1.65259661 7.85131668 -0.28451906 14.64925625 -3 22 C-4.13732426 18.59598052 -3.83989957 16.22543336 -3.0625 12.75 C-2.86785156 11.85796875 -2.67320312 10.9659375 -2.47265625 10.046875 C-2.31667969 9.37140625 -2.16070312 8.6959375 -2 8 C-1.34 8 -0.68 8 0 8 C0 5.36 0 2.72 0 0 Z " fill="#226CB0" transform="translate(231,158)"/>
<path d="M0 0 C0.7734375 0.433125 0.7734375 0.433125 1.5625 0.875 C4.10788486 2.14977329 4.10788486 2.14977329 7.5 2.8125 C11.47571927 4.16140475 12.72997787 5.54956636 15 9 C14.360625 8.731875 13.72125 8.46375 13.0625 8.1875 C10.15426012 7.00675812 10.15426012 7.00675812 7.69921875 6.33984375 C6.89097656 6.10394531 6.08273438 5.86804688 5.25 5.625 C4.47140625 5.41101563 3.6928125 5.19703125 2.890625 4.9765625 C1 4 1 4 0.234375 1.8984375 C0.15703125 1.27195313 0.0796875 0.64546875 0 0 Z " fill="#166AB0" transform="translate(68,213)"/>
<path d="M0 0 C3 1 3 1 4.75 3.375 C6 6 6 6 5 9 C2.5625 8.625 2.5625 8.625 0 8 C-1.43088528 5.13822943 -0.59991697 3.06624227 0 0 Z " fill="#1174CD" transform="translate(82,180)"/>
<path d="M0 0 C4.94366102 1.97746441 6.07854402 2.88832121 9 7 C6.33333333 5.66666667 3.66666667 4.33333333 1 3 C1.11442461 4.60495567 1.24194694 6.20898119 1.375 7.8125 C1.44460937 8.70582031 1.51421875 9.59914063 1.5859375 10.51953125 C1.86645036 13.24398499 1.86645036 13.24398499 4 16 C2.68 15.34 1.36 14.68 0 14 C0 9.38 0 4.76 0 0 Z " fill="#2673AD" transform="translate(152,115)"/>
<path d="M0 0 C-1.58093054 1.12837409 -3.16484716 2.25256518 -4.75 3.375 C-5.63171875 4.00148438 -6.5134375 4.62796875 -7.421875 5.2734375 C-9.57414979 6.71480941 -11.65460523 7.91498093 -14 9 C-14 8.34 -14 7.68 -14 7 C-13.34 6.67 -12.68 6.34 -12 6 C-12.33 5.01 -12.66 4.02 -13 3 C-11.02 3 -9.04 3 -7 3 C-7 2.01 -7 1.02 -7 0 C-3.98968256 -0.93423645 -3.13349732 -1.04449911 0 0 Z " fill="#186FBD" transform="translate(96,55)"/>
<path d="M0 0 C1.65 0 3.3 0 5 0 C5.061875 0.61875 5.12375 1.2375 5.1875 1.875 C5.81891092 4.24379837 5.81891092 4.24379837 8.375 5.1875 C9.674375 5.5896875 9.674375 5.5896875 11 6 C11.99 6.33 12.98 6.66 14 7 C14.33 7.99 14.66 8.98 15 10 C8.93941903 8.60140439 4.57201885 5.05385671 0 1 C0 0.67 0 0.34 0 0 Z " fill="#2173B7" transform="translate(88,218)"/>
<path d="M0 0 C0.66 0 1.32 0 2 0 C1.46719784 4.22489602 0.12321801 6.54080716 -2.5625 9.8125 C-3.20316406 10.60269531 -3.84382812 11.39289063 -4.50390625 12.20703125 C-4.99761719 12.79871094 -5.49132812 13.39039063 -6 14 C-6.66 13.67 -7.32 13.34 -8 13 C-6.716961 10.82778513 -5.42427887 8.6624676 -4.125 6.5 C-3.76019531 5.87996094 -3.39539063 5.25992188 -3.01953125 4.62109375 C-2.0677482 3.04632542 -1.03889741 1.51870947 0 0 Z " fill="#1C6CBB" transform="translate(228,192)"/>
<path d="M0 0 C0.66 0.33 1.32 0.66 2 1 C-1.63 4.63 -5.26 8.26 -9 12 C-9.33 11.01 -9.66 10.02 -10 9 C-9.34 9 -8.68 9 -8 9 C-8 8.01 -8 7.02 -8 6 C-7.01 6 -6.02 6 -5 6 C-4.9175 5.38125 -4.835 4.7625 -4.75 4.125 C-4 2 -4 2 -2.0625 0.6875 C-1.381875 0.460625 -0.70125 0.23375 0 0 Z " fill="#176BB5" transform="translate(80,64)"/>
<path d="M0 0 C0.66 0.33 1.32 0.66 2 1 C1.01 1.33 0.02 1.66 -1 2 C-1 2.66 -1 3.32 -1 4 C-1.99 4 -2.98 4 -4 4 C-4.185625 4.61875 -4.37125 5.2375 -4.5625 5.875 C-6.71437233 9.05602866 -9.37533763 9.19451947 -13 10 C-9.23156953 5.87827917 -5.11095695 2.36931779 0 0 Z " fill="#1D70B8" transform="translate(101,58)"/>
<path d="M0 0 C1 1 1 1 1.0625 3.5625 C1.041875 4.366875 1.02125 5.17125 1 6 C-0.32 6.33 -1.64 6.66 -3 7 C-2.67 5.35 -2.34 3.7 -2 2 C-2.99 2 -3.98 2 -5 2 C-5 2.66 -5 3.32 -5 4 C-6.98 4.99 -6.98 4.99 -9 6 C-7.04383362 0.55067936 -5.8036551 -0.29762334 0 0 Z " fill="#166CB6" transform="translate(212,194)"/>
<path d="M0 0 C0.33 0.66 0.66 1.32 1 2 C-1.31413242 6.89528012 -2.99062308 9.62054596 -8 12 C-9.33429881 12.6647322 -10.66779756 13.33107632 -12 14 C-8 9.33333333 -4 4.66666667 0 0 Z " fill="#2172B5" transform="translate(199,187)"/>
<path d="M0 0 C0.66 0 1.32 0 2 0 C2.02688151 1.64574566 2.04634123 3.29161413 2.0625 4.9375 C2.07410156 5.85402344 2.08570313 6.77054688 2.09765625 7.71484375 C2 10 2 10 1 11 C-0.85287502 11.07226502 -2.70833878 11.0838122 -4.5625 11.0625 C-5.57441406 11.05347656 -6.58632812 11.04445312 -7.62890625 11.03515625 C-8.41136719 11.02355469 -9.19382813 11.01195312 -10 11 C-10.33 10.34 -10.66 9.68 -11 9 C-10.37351563 9.03480469 -9.74703125 9.06960937 -9.1015625 9.10546875 C-8.28429687 9.13253906 -7.46703125 9.15960938 -6.625 9.1875 C-5.40683594 9.23970703 -5.40683594 9.23970703 -4.1640625 9.29296875 C-3.44992188 9.19628906 -2.73578125 9.09960938 -2 9 C0.29013653 5.5647952 0.17842973 4.014669 0 0 Z " fill="#1F6FB6" transform="translate(221,207)"/>
<path d="M0 0 C0.66 0 1.32 0 2 0 C2.66 2.31 3.32 4.62 4 7 C5.32 7 6.64 7 8 7 C8 8.98 8 10.96 8 13 C1.37209302 9.14376321 1.37209302 9.14376321 0.3125 5.88671875 C0.0625 3.6875 0.0625 3.6875 0 0 Z " fill="#1E70B6" transform="translate(80,205)"/>
<path d="M0 0 C2.31 0 4.62 0 7 0 C3.2064129 3.21880117 -0.65829477 5.6163187 -5 8 C-5 6.35 -5 4.7 -5 3 C-4.360625 2.87625 -3.72125 2.7525 -3.0625 2.625 C-2.0415625 2.315625 -2.0415625 2.315625 -1 2 C-0.67 1.34 -0.34 0.68 0 0 Z " fill="#1E70B7" transform="translate(107,77)"/>
<path d="M0 0 C9.90243902 -0.17073171 9.90243902 -0.17073171 14 1 C14.66 2.32 15.32 3.64 16 5 C10.72 3.68 5.44 2.36 0 1 C0 0.67 0 0.34 0 0 Z " fill="#2372B4" transform="translate(155,71)"/>
<path d="M0 0 C-4.79813482 3.69087294 -9.05925113 4.99667352 -15 6 C-14.34 5.67 -13.68 5.34 -13 5 C-13 4.34 -13 3.68 -13 3 C-11.21189234 2.30329584 -9.41937948 1.61788811 -7.625 0.9375 C-6.62726563 0.55464844 -5.62953125 0.17179688 -4.6015625 -0.22265625 C-2 -1 -2 -1 0 0 Z " fill="#2073BC" transform="translate(173,211)"/>
<path d="M0 0 C0.66 0.33 1.32 0.66 2 1 C1.44449305 4.59905908 0.25112752 5.99909799 -2.5625 8.25 C-3.20316406 8.77078125 -3.84382812 9.2915625 -4.50390625 9.828125 C-4.99761719 10.21484375 -5.49132812 10.6015625 -6 11 C-6 9.68 -6 8.36 -6 7 C-5.34 7 -4.68 7 -4 7 C-3.67 6.01 -3.34 5.02 -3 4 C-2.01 4 -1.02 4 0 4 C0 2.68 0 1.36 0 0 Z " fill="#1C70B6" transform="translate(182,141)"/>
<path d="M0 0 C2.475 0.99 2.475 0.99 5 2 C5 6.29 5 10.58 5 15 C4.67 15 4.34 15 4 15 C3.34 11.04 2.68 7.08 2 3 C1.34 3 0.68 3 0 3 C0 2.01 0 1.02 0 0 Z " fill="#0C75D2" transform="translate(256,123)"/>
<path d="M0 0 C3.40312738 1.05875074 6.01353231 2.00902154 9 4 C8.34 5.32 7.68 6.64 7 8 C6.34 8 5.68 8 5 8 C5 7.34 5 6.68 5 6 C4.34 5.67 3.68 5.34 3 5 C3 4.01 3 3.02 3 2 C2.01 2 1.02 2 0 2 C0 1.34 0 0.68 0 0 Z " fill="#146EC6" transform="translate(93,230)"/>
<path d="M0 0 C0.33 0.99 0.66 1.98 1 3 C0.34 3.66 -0.32 4.32 -1 5 C-1.46162427 7.43252661 -1.46162427 7.43252661 -1.625 10.125 C-1.69976562 11.03507812 -1.77453125 11.94515625 -1.8515625 12.8828125 C-1.90054688 13.58148438 -1.94953125 14.28015625 -2 15 C-1.01 15.33 -0.02 15.66 1 16 C-0.98 16.99 -0.98 16.99 -3 18 C-3.08119503 15.75059705 -3.13927819 13.50035129 -3.1875 11.25 C-3.22230469 9.99703125 -3.25710937 8.7440625 -3.29296875 7.453125 C-2.98802939 3.85890643 -2.45605371 2.55274874 0 0 Z " fill="#2D6EA4" transform="translate(56,100)"/>
<path d="M0 0 C1.093125 0.185625 2.18625 0.37125 3.3125 0.5625 C6.93624133 1.2578068 6.93624133 1.2578068 10 0 C9.67 0.99 9.34 1.98 9 3 C2.9453125 3.9765625 2.9453125 3.9765625 1 4 C0.34 3.34 -0.32 2.68 -1 2 C-0.67 1.34 -0.34 0.68 0 0 Z " fill="#0A72D0" transform="translate(89,51)"/>
<path d="M0 0 C0.66 0.33 1.32 0.66 2 1 C1.52269162 2.4589426 1.04308958 3.91713496 0.5625 5.375 C0.29566406 6.18710938 0.02882812 6.99921875 -0.24609375 7.8359375 C-1 10 -1 10 -2 12 C-2.66 12 -3.32 12 -4 12 C-3.52309796 10.37433394 -3.04340334 8.74948689 -2.5625 7.125 C-2.29566406 6.22007812 -2.02882812 5.31515625 -1.75390625 4.3828125 C-1 2 -1 2 0 0 Z " fill="#1B6BB1" transform="translate(202,206)"/>
<path d="M0 0 C0.66 0 1.32 0 2 0 C2 3.3 2 6.6 2 10 C1.01 10 0.02 10 -1 10 C-1.33 8.68 -1.66 7.36 -2 6 C-1.34 6 -0.68 6 0 6 C0 4.02 0 2.04 0 0 Z " fill="#0B75D2" transform="translate(139,159)"/>
<path d="M0 0 C-0.33 0.66 -0.66 1.32 -1 2 C-5.54093172 3.41904116 -10.2943099 3.09226843 -15 3 C-9.76595295 0.33421206 -5.94078624 -0.11424589 0 0 Z " fill="#2271B9" transform="translate(127,21)"/>
<path d="M0 0 C0.33 0.66 0.66 1.32 1 2 C-0.21484375 4.6015625 -0.21484375 4.6015625 -1.9375 7.625 C-2.78634766 9.12933594 -2.78634766 9.12933594 -3.65234375 10.6640625 C-4.09707031 11.43492187 -4.54179687 12.20578125 -5 13 C-6.25541557 9.23375329 -5.37061958 7.62811066 -4 4 C-3.34 4 -2.68 4 -2 4 C-2 3.01 -2 2.02 -2 1 C-1.34 0.67 -0.68 0.34 0 0 Z " fill="#236DB3" transform="translate(224,185)"/>
<path d="M0 0 C1.98 0 3.96 0 6 0 C2.79239749 3.80635497 -0.40746109 7.54563567 -4 11 C-2.92598892 8.08482708 -2.22189824 6.22189824 0 4 C0 2.68 0 1.36 0 0 Z " fill="#176FB3" transform="translate(220,80)"/>
<path d="M0 0 C0.99 0.495 0.99 0.495 2 1 C2.6328125 3.72265625 2.6328125 3.72265625 3.125 7.0625 C3.29257813 8.16722656 3.46015625 9.27195312 3.6328125 10.41015625 C3.75398437 11.26480469 3.87515625 12.11945313 4 13 C3.01 13 2.02 13 1 13 C0.67 8.71 0.34 4.42 0 0 Z " fill="#2272B3" transform="translate(200,68)"/>
<path d="M0 0 C1.65 0 3.3 0 5 0 C4.67 0.66 4.34 1.32 4 2 C3.34 2 2.68 2 2 2 C2 2.66 2 3.32 2 4 C-0.8125 5.5625 -0.8125 5.5625 -4 7 C-4.99 6.67 -5.98 6.34 -7 6 C-5.75 4.5 -5.75 4.5 -4 3 C-2.68 3 -1.36 3 0 3 C0 2.01 0 1.02 0 0 Z " fill="#0974D3" transform="translate(80,60)"/>
<path d="M0 0 C0.99 0.33 1.98 0.66 3 1 C2.67 4.3 2.34 7.6 2 11 C1.67 11 1.34 11 1 11 C1 8.69 1 6.38 1 4 C-0.32 3.67 -1.64 3.34 -3 3 C-2.01 2.01 -1.02 1.02 0 0 Z " fill="#1F68A9" transform="translate(140,115)"/>
<path d="M0 0 C1.67542976 0.28604898 3.34385343 0.61781233 5 1 C4 3 3 5 2 7 C1.34 7 0.68 7 0 7 C-0.38133299 5.0085944 -0.71325582 3.00720923 -1 1 C-0.67 0.67 -0.34 0.34 0 0 Z " fill="#1370C9" transform="translate(65,75)"/>
<path d="M0 0 C0.125 2.375 0.125 2.375 0 5 C-0.66 5.66 -1.32 6.32 -2 7 C-4.125 6.625 -4.125 6.625 -6 6 C-3.4 0 -3.4 0 0 0 Z " fill="#0B74D5" transform="translate(73,45)"/>
<path d="M0 0 C2.64 0 5.28 0 8 0 C8.33 1.32 8.66 2.64 9 4 C6.03 3.505 6.03 3.505 3 3 C3 3.66 3 4.32 3 5 C1.68 4.34 0.36 3.68 -1 3 C-0.67 2.01 -0.34 1.02 0 0 Z " fill="#066FD5" transform="translate(196,35)"/>
<path d="M0 0 C-0.66 1.32 -1.32 2.64 -2 4 C-5.3 4 -8.6 4 -12 4 C-7.82050327 1.21366885 -5.06624674 0 0 0 Z " fill="#0D75D4" transform="translate(116,24)"/>
<path d="M0 0 C1.46067199 0.45082469 2.91848032 0.91093537 4.375 1.375 C5.18710938 1.63023437 5.99921875 1.88546875 6.8359375 2.1484375 C9 3 9 3 11 5 C7.7 4.67 4.4 4.34 1 4 C1 3.34 1 2.68 1 2 C0.34 1.67 -0.32 1.34 -1 1 C-0.67 0.67 -0.34 0.34 0 0 Z " fill="#0977D2" transform="translate(101,236)"/>
<path d="M0 0 C1.44037669 0.93307421 2.87718985 1.87165077 4.3125 2.8125 C5.11300781 3.33457031 5.91351563 3.85664063 6.73828125 4.39453125 C8.7237402 5.80389849 10.3491852 7.22096657 12 9 C10.68 9 9.36 9 8 9 C8 8.34 8 7.68 8 7 C7.05125 6.773125 6.1025 6.54625 5.125 6.3125 C2 5 2 5 0.8046875 2.41796875 C0.53914063 1.62003906 0.27359375 0.82210937 0 0 Z " fill="#1D6DAF" transform="translate(100,200)"/>
<path d="M0 0 C2.475 0.99 2.475 0.99 5 2 C5 4.64 5 7.28 5 10 C4.34 10 3.68 10 3 10 C2.51171875 7.98177083 2.0234375 5.96354167 1.53515625 3.9453125 C1.05153008 1.9414343 1.05153008 1.9414343 0 0 Z " fill="#1871BD" transform="translate(54,92)"/>
<path d="M0 0 C0.66 0.33 1.32 0.66 2 1 C2 3.97 2 6.94 2 10 C0.68 8.35 -0.64 6.7 -2 5 C-1.34 3.35 -0.68 1.7 0 0 Z " fill="#0773D2" transform="translate(63,77)"/>
<path d="M0 0 C3.93673644 1.31224548 6.22719294 2.91910327 9 6 C7.68 6.33 6.36 6.66 5 7 C4.34 5.68 3.68 4.36 3 3 C2.34 3 1.68 3 1 3 C0.67 2.01 0.34 1.02 0 0 Z " fill="#1970BA" transform="translate(191,62)"/>
<path d="M0 0 C0.33 0.66 0.66 1.32 1 2 C1.66 2.33 2.32 2.66 3 3 C-0.75 6 -0.75 6 -3 6 C-3.33 6.99 -3.66 7.98 -4 9 C-4.66 8.67 -5.32 8.34 -6 8 C-4.02 5.36 -2.04 2.72 0 0 Z " fill="#0975D4" transform="translate(56,60)"/>
<path d="M0 0 C0.33 0.66 0.66 1.32 1 2 C0.34 2 -0.32 2 -1 2 C-1 2.66 -1 3.32 -1 4 C-1.66 4 -2.32 4 -3 4 C-3.33 4.99 -3.66 5.98 -4 7 C-4.99 7 -5.98 7 -7 7 C-6.3125 4.625 -6.3125 4.625 -5 2 C-2.375 0.6875 -2.375 0.6875 0 0 Z " fill="#0674D2" transform="translate(220,69)"/>
<path d="M0 0 C5.94 0.99 5.94 0.99 12 2 C12 2.33 12 2.66 12 3 C7.71 3 3.42 3 -1 3 C-0.67 2.01 -0.34 1.02 0 0 Z " fill="#116FBF" transform="translate(124,234)"/>
<path d="M0 0 C0.33 0 0.66 0 1 0 C1.433125 1.36125 1.433125 1.36125 1.875 2.75 C2.76531776 5.32202908 3.71494413 7.61346766 5 10 C4.01 10 3.02 10 2 10 C-1.125 3.375 -1.125 3.375 0 0 Z " fill="#136DC9" transform="translate(46,209)"/>
<path d="M0 0 C0.66 0 1.32 0 2 0 C3.06775224 1.96466413 4.06553465 3.96855359 5 6 C4.67 6.66 4.34 7.32 4 8 C3.01 7.67 2.02 7.34 1 7 C0.67 4.69 0.34 2.38 0 0 Z " fill="#1E70BB" transform="translate(79,173)"/>
<path d="M0 0 C1.65 0 3.3 0 5 0 C5.268125 0.639375 5.53625 1.27875 5.8125 1.9375 C6.88667752 4.33131686 6.88667752 4.33131686 10 5 C9.67 5.66 9.34 6.32 9 7 C7.4972763 6.02501855 5.99788037 5.04490611 4.5 4.0625 C3.6646875 3.51722656 2.829375 2.97195312 1.96875 2.41015625 C1.3190625 1.94480469 0.669375 1.47945313 0 1 C0 0.67 0 0.34 0 0 Z " fill="#1F70B4" transform="translate(177,79)"/>
<path d="M0 0 C0.66 0.33 1.32 0.66 2 1 C0.71283353 2.00578589 -0.57988658 3.00446798 -1.875 4 C-2.95394531 4.8353125 -2.95394531 4.8353125 -4.0546875 5.6875 C-6 7 -6 7 -8 7 C-8 6.01 -8 5.02 -8 4 C-6.71349294 3.30289269 -5.42059335 2.61757124 -4.125 1.9375 C-3.40570313 1.55464844 -2.68640625 1.17179688 -1.9453125 0.77734375 C-1.30335938 0.52082031 -0.66140625 0.26429688 0 0 Z " fill="#216FB7" transform="translate(216,240)"/>
<path d="M0 0 C-2 3 -2 3 -4.125 3.6875 C-4.74375 3.790625 -5.3625 3.89375 -6 4 C-6.33 2.68 -6.66 1.36 -7 0 C-3.86650268 -1.04449911 -3.01031744 -0.93423645 0 0 Z " fill="#0975D6" transform="translate(180,210)"/>
<path d="M0 0 C0.33 0 0.66 0 1 0 C1.33 2.97 1.66 5.94 2 9 C0.68 8.67 -0.64 8.34 -2 8 C-1.125 2.25 -1.125 2.25 0 0 Z " fill="#0974D4" transform="translate(66,206)"/>
<path d="M0 0 C2.4375 0.75 2.4375 0.75 5 2 C5.8125 4.125 5.8125 4.125 6 6 C4.68 6.33 3.36 6.66 2 7 C1.855625 6.401875 1.71125 5.80375 1.5625 5.1875 C1.1127561 3.43849596 0.57107659 1.71322977 0 0 Z " fill="#0674D5" transform="translate(96,200)"/>
<path d="M0 0 C2.3125 0.1875 2.3125 0.1875 5 1 C6.875 3.4375 6.875 3.4375 8 6 C7.67 6.66 7.34 7.32 7 8 C5.83035398 6.8572081 4.66435444 5.71068285 3.5 4.5625 C2.8503125 3.92441406 2.200625 3.28632813 1.53125 2.62890625 C0 1 0 1 0 0 Z " fill="#1D6EB6" transform="translate(123,155)"/>
<path d="M0 0 C2.125 0.9375 2.125 0.9375 4 2 C3.67 3.65 3.34 5.3 3 7 C2.34 7 1.68 7 1 7 C0.01 5.02 -0.98 3.04 -2 1 C-1.34 0.67 -0.68 0.34 0 0 Z " fill="#047BE6" transform="translate(59,101)"/>
<path d="M0 0 C-1.28965176 1.37562854 -2.62689293 2.70766393 -4 4 C-4.66 4 -5.32 4 -6 4 C-6.33 4.66 -6.66 5.32 -7 6 C-6.75 3.625 -6.75 3.625 -6 1 C-2.69333333 -1.34666667 -2.69333333 -1.34666667 0 0 Z " fill="#1375CA" transform="translate(82,77)"/>
<path d="M0 0 C6.875 3.75 6.875 3.75 8 6 C5.125 5.8125 5.125 5.8125 2 5 C0.625 2.4375 0.625 2.4375 0 0 Z " fill="#1B6FB3" transform="translate(204,36)"/>
<path d="M0 0 C0.33 0.66 0.66 1.32 1 2 C1.99 2 2.98 2 4 2 C2.25 5.875 2.25 5.875 0 7 C0 5.68 0 4.36 0 3 C-0.66 3 -1.32 3 -2 3 C-1 1 -1 1 0 0 Z " fill="#1673C5" transform="translate(227,225)"/>
<path d="M0 0 C0.99 0.33 1.98 0.66 3 1 C3 3.64 3 6.28 3 9 C2.34 8.67 1.68 8.34 1 8 C1 6.02 1 4.04 1 2 C0.34 1.67 -0.32 1.34 -1 1 C-0.67 0.67 -0.34 0.34 0 0 Z " fill="#1073D0" transform="translate(81,203)"/>
<path d="M0 0 C0.33 0 0.66 0 1 0 C1.33 2.97 1.66 5.94 2 9 C0.68 9 -0.64 9 -2 9 C-2.33 8.34 -2.66 7.68 -3 7 C-2.01 7 -1.02 7 0 7 C0 4.69 0 2.38 0 0 Z " fill="#206BA3" transform="translate(141,162)"/>
<path d="M0 0 C3 3.75 3 3.75 3 6 C1.35 6.33 -0.3 6.66 -2 7 C-1.34 4.69 -0.68 2.38 0 0 Z " fill="#0A73CF" transform="translate(235,179)"/>
<path d="M0 0 C-0.33 0.66 -0.66 1.32 -1 2 C-3.06640625 2.6328125 -3.06640625 2.6328125 -5.5625 3.125 C-6.80193359 3.37636719 -6.80193359 3.37636719 -8.06640625 3.6328125 C-8.70449219 3.75398437 -9.34257812 3.87515625 -10 4 C-6.58908673 0.88145073 -4.68377325 -0.53528837 0 0 Z " fill="#1E6FB1" transform="translate(178,231)"/>
<path d="M0 0 C1 2 1 2 0.44140625 3.9453125 C0.15136719 4.66460937 -0.13867188 5.38390625 -0.4375 6.125 C-0.72496094 6.84945312 -1.01242188 7.57390625 -1.30859375 8.3203125 C-1.53675781 8.87460938 -1.76492187 9.42890625 -2 10 C-2.33 10 -2.66 10 -3 10 C-3 7.69 -3 5.38 -3 3 C-2.34 3 -1.68 3 -1 3 C-0.67 2.01 -0.34 1.02 0 0 Z " fill="#2570B7" transform="translate(195,208)"/>
<path d="M0 0 C0.66 0.33 1.32 0.66 2 1 C1.01 2.485 1.01 2.485 0 4 C-3.625 4.6875 -3.625 4.6875 -7 5 C-2.25 1.125 -2.25 1.125 0 0 Z " fill="#256EB5" transform="translate(180,205)"/>
<path d="M0 0 C0.33 0.66 0.66 1.32 1 2 C1.66 2 2.32 2 3 2 C3.33 3.98 3.66 5.96 4 8 C3.34 8 2.68 8 2 8 C0.23537317 4.91190305 0 3.76687864 0 0 Z " fill="#0A72D2" transform="translate(58,170)"/>
<path d="M0 0 C1.98 0.99 1.98 0.99 4 2 C3.67 5.3 3.34 8.6 3 12 C2.67 12 2.34 12 2 12 C1.93941406 11.38511719 1.87882813 10.77023438 1.81640625 10.13671875 C1.73261719 9.32847656 1.64882812 8.52023438 1.5625 7.6875 C1.48128906 6.88699219 1.40007812 6.08648437 1.31640625 5.26171875 C1.04734307 2.83912821 1.04734307 2.83912821 0 0 Z " fill="#2562AD" transform="translate(231,146)"/>
<path d="M0 0 C1.32 0 2.64 0 4 0 C3.67 1.65 3.34 3.3 3 5 C2.01 4.67 1.02 4.34 0 4 C0 2.68 0 1.36 0 0 Z " fill="#0878E4" transform="translate(174,138)"/>
<path d="M0 0 C4.41889613 1.35021826 6.34345343 3.26115668 9 7 C5.88626628 5.50079488 2.87771795 3.91847864 0 2 C0 1.34 0 0.68 0 0 Z " fill="#2F6AA1" transform="translate(152,115)"/>
</svg>
